<?xml version="1.0" encoding="UTF-8"?>
<svg version="1.1" xmlns="http://www.w3.org/2000/svg" width="1538" height="956">
<path d="M0 0 C507.54 0 1015.08 0 1538 0 C1538 315.48 1538 630.96 1538 956 C1030.46 956 522.92 956 0 956 C0 640.52 0 325.04 0 0 Z " fill="#FDF2E2" transform="translate(0,0)"/>
<path d="M0 0 C4.95 0 9.9 0 15 0 C15 315.48 15 630.96 15 956 C-492.54 956 -1000.08 956 -1523 956 C-1523 954.02 -1523 952.04 -1523 950 C-1521.59412184 950.73086603 -1521.59412184 950.73086603 -1520.15984211 951.47649703 C-1515.30336526 953.54030182 -1510.65181233 953.41422983 -1505.44252628 953.37604749 C-1504.38435095 953.38025444 -1503.32617562 953.38446139 -1502.23593437 953.38879583 C-1498.67114578 953.39927938 -1495.10674389 953.38830306 -1491.54196072 953.37752342 C-1488.95700902 953.38065147 -1486.37205863 953.3850942 -1483.78711119 953.39073652 C-1478.13944421 953.40092152 -1472.49186402 953.39991827 -1466.84419512 953.39168589 C-1458.38944778 953.37941733 -1449.93477098 953.38443017 -1441.48002206 953.39283381 C-1427.07156784 953.40664543 -1412.66314536 953.40617815 -1398.25468826 953.39799118 C-1383.64946028 953.38974289 -1369.0442532 953.38799198 -1354.43902397 953.39420319 C-1353.0562812 953.39478446 -1353.0562812 953.39478446 -1351.64560424 953.39537748 C-1347.89126041 953.39697726 -1344.13691661 953.39862338 -1340.38257282 953.40032831 C-1305.39739317 953.41620472 -1270.41222752 953.41726873 -1235.42704582 953.40888596 C-1234.38992583 953.40863757 -1233.35280585 953.40838918 -1232.28425798 953.40813327 C-1230.72609952 953.40776009 -1230.72609952 953.40776009 -1229.1364631 953.40737936 C-1197.51440574 953.39981567 -1165.89235417 953.39785291 -1134.2702961 953.4014473 C-1132.15433205 953.40167973 -1130.03836801 953.4019112 -1127.92240396 953.40214171 C-1119.41964627 953.40307307 -1110.91688859 953.40402907 -1102.41413091 953.405021 C-1078.64417542 953.40777228 -1054.8742199 953.40948389 -1031.10426426 953.41037941 C-1030.02175946 953.41042035 -1028.93925466 953.41046128 -1027.82394669 953.41050346 C-993.32096153 953.41173164 -958.81797839 953.40834885 -924.31499386 953.40183067 C-923.19560931 953.40161993 -922.07622476 953.40140918 -920.92291946 953.40119205 C-902.74379703 953.39775703 -884.56467464 953.39409872 -866.38555225 953.39042152 C-794.27843223 953.37585153 -722.17132893 953.37652874 -650.06420898 953.39111328 C-631.8931602 953.39477672 -613.72211141 953.39840982 -595.55106258 953.40183067 C-594.43227211 953.40204202 -593.31348164 953.40225336 -592.16078843 953.40247111 C-557.69350622 953.40893758 -523.2262254 953.41168288 -488.7589426 953.41037941 C-487.67724197 953.41033866 -486.59554133 953.4102979 -485.48106189 953.41025592 C-461.73831586 953.40931857 -437.99556999 953.40741783 -414.2528241 953.4046479 C-405.75789428 953.40366043 -397.26296446 953.4027212 -388.76803463 953.40179577 C-386.65463328 953.4015636 -384.54123194 953.40132741 -382.42783059 953.40108718 C-350.81178381 953.39750329 -319.19574356 953.40056175 -287.57969759 953.40813327 C-286.54249481 953.40838166 -285.50529203 953.40863004 -284.43665886 953.40888596 C-283.40136156 953.409134 -282.36606426 953.40938205 -281.29939432 953.40963761 C-246.41815365 953.41790342 -211.53692981 953.41488647 -176.65569156 953.39904372 C-172.91365271 953.39738659 -169.17161385 953.39577648 -165.42957497 953.39420319 C-164.05199329 953.39361726 -164.05199329 953.39361726 -162.64658168 953.39301949 C-148.07730538 953.38709159 -133.50804994 953.39123342 -118.93877551 953.3995102 C-104.62902422 953.40742667 -90.31930828 953.40469591 -76.0095615 953.39046794 C-67.60982449 953.38243574 -59.21018416 953.38267473 -50.81045167 953.39491273 C-44.58990093 953.40306658 -38.36946197 953.39573173 -32.14892275 953.38214391 C-29.63661338 953.37910253 -27.12429178 953.38117236 -24.61199204 953.38876172 C-21.21851721 953.39829194 -17.82557419 953.38955662 -14.43212456 953.37604749 C-13.4512138 953.38321972 -12.47030305 953.39039194 -11.45966773 953.39778151 C-6.28824537 953.35555786 -2.32521578 953.15841009 2 950 C4.8533598 945.73690048 5.37516389 942.3271131 5.37604749 937.26005363 C5.38025444 936.60314653 5.38446139 935.94623942 5.38879583 935.26942604 C5.39924244 933.06627531 5.38832283 930.86375552 5.37752342 928.66061401 C5.38065287 927.05915318 5.38509664 925.45769447 5.39073652 923.85624051 C5.40245654 919.43759846 5.3954091 915.01915212 5.38540266 910.60051313 C5.37781352 905.80017108 5.38756396 900.99985975 5.39513266 896.19952202 C5.40598703 887.78037337 5.40562721 879.36128238 5.39799118 870.94213104 C5.38666708 858.42278861 5.39243278 845.90349503 5.4016161 833.38415295 C5.41743415 811.02765054 5.41603587 788.67117382 5.40737936 766.31466895 C5.39984097 746.7504463 5.39785873 727.18623308 5.4014473 707.62200928 C5.40167645 706.32567188 5.40190561 705.02933448 5.40214171 703.69371413 C5.40307568 698.43182677 5.40403087 693.16993942 5.405021 687.90805208 C5.40775595 673.19833484 5.40948387 658.48861761 5.41037941 643.77890015 C5.41044082 642.77408 5.41044082 642.77408 5.41050346 641.74896046 C5.41173154 620.39942151 5.40834938 599.04988583 5.40183067 577.7003479 C5.40161993 577.00775943 5.40140918 576.31517096 5.40119205 575.60159497 C5.39775708 564.35396852 5.39409875 553.10634214 5.39042152 541.85871577 C5.37585219 497.24759835 5.37652842 452.63650793 5.39111328 408.02539062 C5.39477677 396.78347781 5.39840988 385.54156499 5.40183067 374.2996521 C5.40204202 373.60747351 5.40225336 372.91529491 5.40247111 372.20214121 C5.40893836 350.87512699 5.41168273 329.54811502 5.41037941 308.22109985 C5.41033866 307.55170988 5.4102979 306.88231991 5.41025592 306.1926454 C5.40927648 290.84021508 5.40716534 275.48778508 5.40427649 260.135355 C5.4033143 254.88290024 5.40237578 249.63044548 5.4014473 244.37799072 C5.40121006 243.08464541 5.40097283 241.7913001 5.40072841 240.45876251 C5.39731198 220.9039619 5.40131428 201.34917173 5.40888596 181.79437256 C5.41744983 159.56590538 5.41534899 137.33746795 5.39904372 115.1090045 C5.39021345 102.65933042 5.38969061 90.20972074 5.40098225 77.76004829 C5.40768665 69.45399457 5.40356409 61.14799271 5.39046794 52.8419467 C5.38330136 48.10290125 5.38095387 43.36398415 5.39168589 38.62494254 C5.40134074 34.31783144 5.39731229 30.01096314 5.38214391 25.70386991 C5.37911036 24.15148401 5.38115228 22.59907823 5.38876172 21.04670802 C5.39834061 18.94415791 5.38951235 16.84245693 5.37604749 14.73994637 C5.37584421 13.57424177 5.37564094 12.40853718 5.3754315 11.20750821 C4.83764378 6.61290568 3.26973037 3.26973037 0 0 Z " fill="#F2F3F5" transform="translate(1523,0)"/>
<path d="M0 0 C2.74637817 0.37881078 3.80049058 0.77832287 5.6875 2.875 C8.08531308 6.75717356 8.1259725 9.90509394 8.12880117 14.37376291 C8.13057618 15.02753018 8.13235119 15.68129746 8.13417998 16.35487586 C8.13894466 18.56522435 8.13654103 20.77550826 8.13422108 22.98585987 C8.13617298 24.58552721 8.13856143 26.18519406 8.14134905 27.78486016 C8.14777239 32.21245405 8.14790882 36.64002984 8.14707164 41.0676275 C8.14724068 45.87251668 8.15314162 50.67739928 8.1583125 55.4822852 C8.16765582 65.02639262 8.17156345 74.5704954 8.17383147 84.11460682 C8.17678899 95.54046896 8.18548367 106.96632493 8.19424575 118.39218384 C8.21510832 146.01063931 8.2255623 173.62909587 8.23437535 201.24755739 C8.23857877 214.30554138 8.24380113 227.3635249 8.24905988 240.42150849 C8.26667006 284.39548794 8.28172434 328.36946747 8.28903012 372.3434499 C8.28961409 375.84936266 8.29021136 379.35527542 8.29080774 382.86118818 C8.29092586 383.55665817 8.29104398 384.25212816 8.29116567 384.96867299 C8.29236308 392.01490071 8.29357184 399.06112843 8.29479821 406.10735615 C8.29504344 407.52015832 8.2952873 408.93296049 8.29552978 410.34576266 C8.30332141 455.73080122 8.32570909 501.11581394 8.3582062 546.5008412 C8.38154589 579.10772066 8.40310068 611.71459499 8.41021252 644.32148266 C8.41035954 644.99178992 8.41050656 645.66209718 8.41065803 646.35271679 C8.41398543 661.72634481 8.41596757 677.09997269 8.41702431 692.47360104 C8.41744187 697.7334046 8.41792144 702.99320815 8.41844749 708.2530117 C8.41857069 709.54817966 8.41869388 710.84334763 8.4188208 712.1777631 C8.42115664 733.05582989 8.43683783 753.93386645 8.45728934 774.81192246 C8.47750466 795.78083304 8.48304502 816.74970717 8.47351871 837.7186257 C8.46828717 850.18830459 8.47425893 862.65786245 8.49605338 875.12752401 C8.50949989 883.44701051 8.50853925 891.76641313 8.49565142 900.08590035 C8.48871365 904.83270652 8.48822449 909.5792803 8.50521151 914.32606629 C8.52052545 918.64027774 8.5175908 922.95406829 8.49980123 927.26826671 C8.49663888 928.82321189 8.50025086 930.37818855 8.51129298 931.93309774 C8.5252815 934.03931094 8.51470681 936.14402908 8.49794465 938.2501896 C8.49834484 939.41781326 8.49874502 940.58543692 8.49915733 941.78844311 C7.70782894 946.87981608 5.17437277 949.96543352 1.375 953.3125 C-1.80797684 955.5740888 -3.40624758 956.12498715 -7.24797715 956.12467116 C-8.14734234 956.12702406 -9.04670754 956.12937696 -9.97332623 956.13180115 C-10.97037346 956.12929228 -11.96742069 956.1267834 -12.99468148 956.1241985 C-14.05276718 956.12547658 -15.11085288 956.12675467 -16.20100179 956.12807148 C-19.79551558 956.13116766 -23.38998656 956.12705108 -26.98449898 956.12304783 C-29.57908064 956.1237866 -32.17366221 956.12496424 -34.76824349 956.12654433 C-40.45253257 956.1292881 -46.13681166 956.12827746 -51.82110025 956.12488318 C-60.33067731 956.11982165 -68.84024718 956.12050707 -77.3498252 956.12234976 C-91.84956403 956.12532141 -106.34929884 956.1235359 -120.84903717 956.11920547 C-135.55149507 956.11483379 -150.25395089 956.11263214 -164.95640945 956.11310768 C-165.88357692 956.11313637 -166.81074438 956.11316507 -167.76600782 956.11319463 C-172.49328655 956.11335099 -177.22056527 956.11354294 -181.947844 956.11374746 C-216.20165109 956.11515654 -250.45545633 956.11171867 -284.70926285 956.10573006 C-318.64164362 956.09981179 -352.57402359 956.09595581 -386.50640488 956.09487724 C-388.08590135 956.09482563 -388.08590135 956.09482563 -389.69730685 956.09477296 C-399.31452369 956.09445977 -408.93174054 956.09417208 -418.54895739 956.09391499 C-442.45851044 956.09327551 -466.36806347 956.09231614 -490.2776165 956.09113979 C-491.91097371 956.09105982 -491.91097371 956.09105982 -493.57732803 956.09097823 C-546.57319945 956.08835539 -599.56907035 956.08204729 -652.56494141 956.07543945 C-670.9604899 956.07314784 -689.35603841 956.07087249 -707.75158691 956.06866455 C-708.89244827 956.0685276 -710.03330963 956.06839065 -711.20874255 956.06824955 C-764.22383592 956.06190792 -817.23892939 956.05818067 -870.25402304 956.05512976 C-873.6949206 956.05493169 -877.13581817 956.0547325 -880.57671573 956.05453308 C-903.37932437 956.05321332 -926.18193302 956.05193867 -948.98454166 956.05069422 C-994.3578164 956.04821758 -1039.73109112 956.04547589 -1085.10436583 956.04255217 C-1087.2652613 956.04241293 -1089.42615676 956.04227388 -1091.58705222 956.04213501 C-1188.89153117 956.03588026 -1286.19600973 956.0265418 -1383.50048828 956.01586914 C-1384.4117961 956.01576921 -1385.32310391 956.01566927 -1386.26202712 956.01556631 C-1431.84135143 956.01056563 -1477.42067573 956.00538909 -1523 956 C-1523 954.02 -1523 952.04 -1523 950 C-1521.59412184 950.73086603 -1521.59412184 950.73086603 -1520.15984211 951.47649703 C-1515.30336526 953.54030182 -1510.65181233 953.41422983 -1505.44252628 953.37604749 C-1504.38435095 953.38025444 -1503.32617562 953.38446139 -1502.23593437 953.38879583 C-1498.67114578 953.39927938 -1495.10674389 953.38830306 -1491.54196072 953.37752342 C-1488.95700902 953.38065147 -1486.37205863 953.3850942 -1483.78711119 953.39073652 C-1478.13944421 953.40092152 -1472.49186402 953.39991827 -1466.84419512 953.39168589 C-1458.38944778 953.37941733 -1449.93477098 953.38443017 -1441.48002206 953.39283381 C-1427.07156784 953.40664543 -1412.66314536 953.40617815 -1398.25468826 953.39799118 C-1383.64946028 953.38974289 -1369.0442532 953.38799198 -1354.43902397 953.39420319 C-1353.0562812 953.39478446 -1353.0562812 953.39478446 -1351.64560424 953.39537748 C-1347.89126041 953.39697726 -1344.13691661 953.39862338 -1340.38257282 953.40032831 C-1305.39739317 953.41620472 -1270.41222752 953.41726873 -1235.42704582 953.40888596 C-1234.38992583 953.40863757 -1233.35280585 953.40838918 -1232.28425798 953.40813327 C-1230.72609952 953.40776009 -1230.72609952 953.40776009 -1229.1364631 953.40737936 C-1197.51440574 953.39981567 -1165.89235417 953.39785291 -1134.2702961 953.4014473 C-1132.15433205 953.40167973 -1130.03836801 953.4019112 -1127.92240396 953.40214171 C-1119.41964627 953.40307307 -1110.91688859 953.40402907 -1102.41413091 953.405021 C-1078.64417542 953.40777228 -1054.8742199 953.40948389 -1031.10426426 953.41037941 C-1030.02175946 953.41042035 -1028.93925466 953.41046128 -1027.82394669 953.41050346 C-993.32096153 953.41173164 -958.81797839 953.40834885 -924.31499386 953.40183067 C-923.19560931 953.40161993 -922.07622476 953.40140918 -920.92291946 953.40119205 C-902.74379703 953.39775703 -884.56467464 953.39409872 -866.38555225 953.39042152 C-794.27843223 953.37585153 -722.17132893 953.37652874 -650.06420898 953.39111328 C-631.8931602 953.39477672 -613.72211141 953.39840982 -595.55106258 953.40183067 C-594.43227211 953.40204202 -593.31348164 953.40225336 -592.16078843 953.40247111 C-557.69350622 953.40893758 -523.2262254 953.41168288 -488.7589426 953.41037941 C-487.67724197 953.41033866 -486.59554133 953.4102979 -485.48106189 953.41025592 C-461.73831586 953.40931857 -437.99556999 953.40741783 -414.2528241 953.4046479 C-405.75789428 953.40366043 -397.26296446 953.4027212 -388.76803463 953.40179577 C-386.65463328 953.4015636 -384.54123194 953.40132741 -382.42783059 953.40108718 C-350.81178381 953.39750329 -319.19574356 953.40056175 -287.57969759 953.40813327 C-286.54249481 953.40838166 -285.50529203 953.40863004 -284.43665886 953.40888596 C-283.40136156 953.409134 -282.36606426 953.40938205 -281.29939432 953.40963761 C-246.41815365 953.41790342 -211.53692981 953.41488647 -176.65569156 953.39904372 C-172.91365271 953.39738659 -169.17161385 953.39577648 -165.42957497 953.39420319 C-164.05199329 953.39361726 -164.05199329 953.39361726 -162.64658168 953.39301949 C-148.07730538 953.38709159 -133.50804994 953.39123342 -118.93877551 953.3995102 C-104.62902422 953.40742667 -90.31930828 953.40469591 -76.0095615 953.39046794 C-67.60982449 953.38243574 -59.21018416 953.38267473 -50.81045167 953.39491273 C-44.58990093 953.40306658 -38.36946197 953.39573173 -32.14892275 953.38214391 C-29.63661338 953.37910253 -27.12429178 953.38117236 -24.61199204 953.38876172 C-21.21851721 953.39829194 -17.82557419 953.38955662 -14.43212456 953.37604749 C-13.4512138 953.38321972 -12.47030305 953.39039194 -11.45966773 953.39778151 C-6.28824537 953.35555786 -2.32521578 953.15841009 2 950 C4.8533598 945.73690048 5.37516389 942.3271131 5.37604749 937.26005363 C5.38025444 936.60314653 5.38446139 935.94623942 5.38879583 935.26942604 C5.39924244 933.06627531 5.38832283 930.86375552 5.37752342 928.66061401 C5.38065287 927.05915318 5.38509664 925.45769447 5.39073652 923.85624051 C5.40245654 919.43759846 5.3954091 915.01915212 5.38540266 910.60051313 C5.37781352 905.80017108 5.38756396 900.99985975 5.39513266 896.19952202 C5.40598703 887.78037337 5.40562721 879.36128238 5.39799118 870.94213104 C5.38666708 858.42278861 5.39243278 845.90349503 5.4016161 833.38415295 C5.41743415 811.02765054 5.41603587 788.67117382 5.40737936 766.31466895 C5.39984097 746.7504463 5.39785873 727.18623308 5.4014473 707.62200928 C5.40167645 706.32567188 5.40190561 705.02933448 5.40214171 703.69371413 C5.40307568 698.43182677 5.40403087 693.16993942 5.405021 687.90805208 C5.40775595 673.19833484 5.40948387 658.48861761 5.41037941 643.77890015 C5.41044082 642.77408 5.41044082 642.77408 5.41050346 641.74896046 C5.41173154 620.39942151 5.40834938 599.04988583 5.40183067 577.7003479 C5.40161993 577.00775943 5.40140918 576.31517096 5.40119205 575.60159497 C5.39775708 564.35396852 5.39409875 553.10634214 5.39042152 541.85871577 C5.37585219 497.24759835 5.37652842 452.63650793 5.39111328 408.02539062 C5.39477677 396.78347781 5.39840988 385.54156499 5.40183067 374.2996521 C5.40204202 373.60747351 5.40225336 372.91529491 5.40247111 372.20214121 C5.40893836 350.87512699 5.41168273 329.54811502 5.41037941 308.22109985 C5.41033866 307.55170988 5.4102979 306.88231991 5.41025592 306.1926454 C5.40927648 290.84021508 5.40716534 275.48778508 5.40427649 260.135355 C5.4033143 254.88290024 5.40237578 249.63044548 5.4014473 244.37799072 C5.40121006 243.08464541 5.40097283 241.7913001 5.40072841 240.45876251 C5.39731198 220.9039619 5.40131428 201.34917173 5.40888596 181.79437256 C5.41744983 159.56590538 5.41534899 137.33746795 5.39904372 115.1090045 C5.39021345 102.65933042 5.38969061 90.20972074 5.40098225 77.76004829 C5.40768665 69.45399457 5.40356409 61.14799271 5.39046794 52.8419467 C5.38330136 48.10290125 5.38095387 43.36398415 5.39168589 38.62494254 C5.40134074 34.31783144 5.39731229 30.01096314 5.38214391 25.70386991 C5.37911036 24.15148401 5.38115228 22.59907823 5.38876172 21.04670802 C5.39834061 18.94415791 5.38951235 16.84245693 5.37604749 14.73994637 C5.37584421 13.57424177 5.37564094 12.40853718 5.3754315 11.20750821 C4.83764378 6.61290568 3.26973037 3.26973037 0 0 Z " fill="#E5E7EB" transform="translate(1523,0)"/>
<path d="M0 0 C0.76441406 -0.0103125 1.52882813 -0.020625 2.31640625 -0.03125 C4.4375 0.5 4.4375 0.5 6.19921875 2.08984375 C7.88629351 5.37351922 7.7635962 7.88324858 7.6875 11.5625 C7.67106445 12.54972046 7.67106445 12.54972046 7.65429688 13.55688477 C7.52771042 19.2305723 7.09357618 24.8647742 6.4375 30.5 C7.97947452 29.52131821 9.52105071 28.54200884 11.0625 27.5625 C12.55716797 26.62083984 12.55716797 26.62083984 14.08203125 25.66015625 C16.44569134 24.13849847 18.76487917 22.5951504 21.07421875 20.99609375 C21.68507324 20.58157959 22.29592773 20.16706543 22.92529297 19.73999023 C24.12254975 18.92638745 25.31084626 18.09940678 26.48876953 17.25805664 C29.44973256 15.26936931 31.12579847 14.48816791 34.73046875 14.625 C37.4375 15.5 37.4375 15.5 39.4375 17.5 C39.23357285 22.90406936 38.05064187 25.56662983 34.4375 29.5 C32.40178227 31.02409555 30.3134525 32.47952881 28.1875 33.875 C22.91494368 37.3977123 18.06799493 41.14929329 13.4375 45.5 C14.83075511 49.67976532 17.80974804 50.94210586 21.375 53.1875 C38.24078936 64.10657872 38.24078936 64.10657872 40.4375 68.5 C40.875 71.8125 40.875 71.8125 40.4375 75.5 C37.34471649 79.28865979 37.34471649 79.28865979 34.4375 80.5 C27.98935165 80.07012344 23.94262809 77.018182 18.83203125 73.25 C14.64261682 70.18824198 10.5516828 67.62910529 5.4375 66.5 C5.44910156 67.49 5.46070313 68.48 5.47265625 69.5 C5.48204591 70.83333142 5.49114483 72.16666492 5.5 73.5 C5.51160156 74.799375 5.52320313 76.09875 5.53515625 77.4375 C5.55889359 80.09608207 5.30010853 82.53761112 4.94897461 85.18945312 C4.37107527 89.63964759 4.23361421 94.04802824 4.15625 98.53125 C4.13784058 99.36660278 4.11943115 100.20195557 4.10046387 101.06262207 C4.04225217 103.7083498 3.98920909 106.3541377 3.9375 109 C3.86929942 112.4897027 3.79565172 115.97922937 3.71875 119.46875 C3.70517456 120.25544067 3.69159912 121.04213135 3.6776123 121.85266113 C3.5679415 126.80158934 3.35413909 131.62818347 2.4375 136.5 C-0.5625 138.5 -0.5625 138.5 -3.625 138.1875 C-6.5625 137.5 -6.5625 137.5 -8.5625 136.5 C-8.5625 135.84 -8.5625 135.18 -8.5625 134.5 C-9.2225 134.5 -9.8825 134.5 -10.5625 134.5 C-11.71068588 132.20362825 -11.69150589 130.93704748 -11.6953125 128.3828125 C-11.69724609 127.48618896 -11.69917969 126.58956543 -11.70117188 125.66577148 C-11.69666016 124.66231689 -11.69214844 123.6588623 -11.6875 122.625 C-11.68556641 121.57320557 -11.68363281 120.52141113 -11.68164062 119.43774414 C-11.5885079 100.78920978 -11.03233046 82.14202293 -10.5625 63.5 C-12.21161377 64.42594971 -12.21161377 64.42594971 -13.89404297 65.37060547 C-14.51246063 65.71783661 -15.1308783 66.06506775 -15.76803589 66.42282104 C-19.18133848 68.47175459 -22.10325463 71.13035136 -25.1328125 73.6953125 C-28.34562038 76.08167462 -31.23499089 77.31035584 -35.1875 77.875 C-37.5625 77.5 -37.5625 77.5 -39.375 75.8125 C-40.81158001 73.01494946 -40.99401282 71.61338819 -40.5625 68.5 C-33.86661591 61.01154188 -24.05605467 55.744925 -15.5625 50.5 C-16.12370049 47.02803962 -17.13459784 45.65946038 -19.875 43.5 C-21.86938833 41.88511066 -23.7114951 40.3461986 -25.5 38.5 C-27.43442499 36.62419395 -29.39625496 35.09576062 -31.5625 33.5 C-34.46891768 31.35272126 -37.19790489 29.25869429 -39.5625 26.5 C-39.5625 25.84 -39.5625 25.18 -39.5625 24.5 C-40.2225 24.5 -40.8825 24.5 -41.5625 24.5 C-43.17435095 21.27629809 -43.14695756 17.98611746 -42.5625 14.5 C-40.49269738 11.76251912 -39.04269279 10.81388704 -35.68359375 10.1015625 C-28.30188017 9.96561934 -23.59210235 15.16197582 -18.48046875 19.8359375 C-14.57789959 23.88712069 -14.57789959 23.88712069 -9.5625 25.5 C-9.5531543 24.88479492 -9.54380859 24.26958984 -9.53417969 23.63574219 C-9.48038915 20.83968914 -9.39676181 18.0452938 -9.3125 15.25 C-9.29832031 14.28191406 -9.28414063 13.31382812 -9.26953125 12.31640625 C-9.02384504 5.19150609 -9.02384504 5.19150609 -6.80078125 1.859375 C-4.30459529 0.34336677 -2.90436515 -0.03931459 0 0 Z " fill="#5AB1B1" transform="translate(332.5625,407.5)"/>
<path d="M0 0 C6.24388488 -0.04969116 12.48765288 -0.08585699 18.73168945 -0.10986328 C20.85280362 -0.11987844 22.97390413 -0.13349446 25.0949707 -0.15087891 C28.15579616 -0.17532525 31.21643797 -0.18652825 34.27734375 -0.1953125 C35.21521225 -0.20563507 36.15308075 -0.21595764 37.11936951 -0.22659302 C46.54567784 -0.22817475 55.39173659 0.92758117 62.6875 7.375 C67.97802225 13.38045769 68.54180039 17.65352183 68.34375 25.55078125 C67.70033262 32.00688977 65.40180837 35.94857941 60.6875 40.3125 C56.57556592 43.55783292 52.35547327 46 47 46 C47.67804688 46.81339844 48.35609375 47.62679687 49.0546875 48.46484375 C54.98310333 55.7192679 60.08806092 63.06829757 64.56201172 71.31225586 C67.20708948 76.07912889 69.77560212 79.67780977 75.01953125 81.828125 C75.61121094 81.96734375 76.20289063 82.1065625 76.8125 82.25 C77.864375 82.4975 78.91625 82.745 80 83 C80 85.31 80 87.62 80 90 C74.1629964 90.45943962 68.34405259 90.72531122 62.48828125 90.6015625 C61.53219971 90.58432129 60.57611816 90.56708008 59.59106445 90.54931641 C56.29071597 89.84962885 55.13234391 88.61345438 53.0625 86 C52.315323 84.02152008 51.63510525 82.01725 51 80 C49.83533017 77.352895 48.54698566 74.77189833 47.25 72.1875 C46.91548828 71.50872803 46.58097656 70.82995605 46.23632812 70.13061523 C43.83680874 65.3637734 41.18601413 60.8911639 38.0625 56.5625 C37.31097656 55.51191406 36.55945313 54.46132813 35.78515625 53.37890625 C32.02487475 50.16710901 28.82149204 50.06244605 24 50 C24.09361965 54.07549941 24.19973161 58.15046336 24.31738281 62.2253418 C24.3556435 63.61131907 24.39050156 64.99739465 24.421875 66.38354492 C24.46758699 68.3770164 24.52658925 70.37016914 24.5859375 72.36328125 C24.63306885 74.16212769 24.63306885 74.16212769 24.68115234 75.99731445 C24.78429494 79.17882706 24.78429494 79.17882706 27 82 C30.05429073 83.21284876 30.05429073 83.21284876 33 84 C33 85.98 33 87.96 33 90 C22.11 90 11.22 90 0 90 C0 87.69 0 85.38 0 83 C1.134375 82.566875 2.26875 82.13375 3.4375 81.6875 C4.613125 81.130625 5.78875 80.57375 7 80 C8.10681279 76.67956162 8.1471523 74.16273169 8.17700195 70.66430664 C8.18983719 69.35607437 8.20267242 68.0478421 8.21589661 66.69996643 C8.22406268 65.27003355 8.23150666 63.8400964 8.23828125 62.41015625 C8.24235678 61.68975096 8.2464323 60.96934566 8.25063133 60.22710991 C8.27146895 56.41646488 8.28578248 52.60585565 8.29516602 48.79516602 C8.30624596 44.85955099 8.34066981 40.92449895 8.38033772 36.98908329 C8.40647108 33.9616134 8.41485471 30.93427862 8.41844749 27.90670586 C8.42331939 26.45581686 8.43495069 25.00493413 8.45348549 23.55415535 C8.47780984 21.52460452 8.47449874 19.49477943 8.4699707 17.46508789 C8.47583694 16.31053604 8.48170319 15.15598419 8.48774719 13.96644592 C7.89540875 10.36388297 6.84419252 9.21312272 4 7 C1.8618034 6.2127322 1.8618034 6.2127322 0 6 C0 4.02 0 2.04 0 0 Z " fill="#2E282A" transform="translate(397,406)"/>
<path d="M0 0 C1.4540625 0.0309375 1.4540625 0.0309375 2.9375 0.0625 C6.27961872 7.91719734 9.39133163 15.82051135 12.29296875 23.84765625 C13.08783405 26.02801542 13.88275755 28.20835337 14.67773438 30.38867188 C15.91006291 33.7787491 17.14106636 37.16930135 18.37084961 40.56030273 C19.57070548 43.86565101 20.77533879 47.16922799 21.98046875 50.47265625 C22.34818893 51.49134293 22.71590912 52.5100296 23.09477234 53.55958557 C23.43885635 54.50164352 23.78294037 55.44370148 24.13745117 56.41430664 C24.43769699 57.24193008 24.73794281 58.06955353 25.04728699 58.92225647 C25.95398239 61.29589453 25.95398239 61.29589453 27.9375 64.0625 C28.26024902 63.03366699 28.58299805 62.00483398 28.91552734 60.94482422 C30.11893056 57.10920678 31.32303408 53.27380948 32.52734375 49.43847656 C33.04739016 47.78196057 33.56724943 46.1253858 34.08691406 44.46875 C34.83608999 42.08057235 35.58595 39.69261039 36.3359375 37.3046875 C36.5662265 36.57007294 36.7965155 35.83545837 37.03378296 35.07858276 C38.01621412 31.95254283 39.01374471 28.84069571 40.07910156 25.74145508 C41.05653524 22.69100579 41.27196195 20.07345237 41.3125 16.875 C41.34085938 15.85019531 41.36921875 14.82539063 41.3984375 13.76953125 C41.19661123 10.95101949 41.19661123 10.95101949 39.0546875 9.2734375 C37.04495337 8.12395857 35.03759186 7.03754265 32.9375 6.0625 C32.9375 4.4125 32.9375 2.7625 32.9375 1.0625 C41.5175 1.0625 50.0975 1.0625 58.9375 1.0625 C58.9375 6.0625 58.9375 6.0625 57.5625 7.875 C55.9375 9.0625 55.9375 9.0625 53.9375 9.0625 C52.1788896 13.29966804 50.70407572 17.6177425 49.2578125 21.96875 C49.00377655 22.72990112 48.7497406 23.49105225 48.48800659 24.27526855 C47.95106484 25.88541498 47.41487668 27.49581288 46.87939453 29.10644531 C46.07416123 31.52743964 45.26577946 33.94736543 44.45703125 36.3671875 C41.50077221 45.23203312 38.64372612 54.11749306 35.9375 63.0625 C33.0513051 72.43519477 30.08636784 81.77421946 26.9375 91.0625 C24.6275 91.0625 22.3175 91.0625 19.9375 91.0625 C17.64446956 84.8593465 15.35160236 78.65613267 13.05883789 72.45288086 C12.28218096 70.35163065 11.50548943 68.25039324 10.72875977 66.14916992 C5.79044014 52.78985019 0.85803192 39.4283822 -4.0625 26.0625 C-6.05337366 29.04881048 -6.98938299 31.48727335 -8.10961914 34.87915039 C-8.50665543 36.07371353 -8.90369171 37.26827667 -9.3127594 38.4990387 C-9.74110883 39.80272796 -10.16940655 41.10643422 -10.59765625 42.41015625 C-11.04037045 43.74643685 -11.48352756 45.08257079 -11.92710876 46.41856384 C-13.09287837 49.93298084 -14.2534939 53.44907721 -15.41278076 56.96563721 C-17.27061178 62.5983567 -19.13607345 68.22855238 -21.00185966 73.85864067 C-21.6532733 75.82685972 -22.30239791 77.79582236 -22.95118713 79.76490784 C-23.34507126 80.95631882 -23.73895538 82.1477298 -24.14477539 83.37524414 C-24.49182022 84.42764786 -24.83886505 85.48005157 -25.19642639 86.56434631 C-26.0625 89.0625 -26.0625 89.0625 -27.0625 91.0625 C-29.3725 91.0625 -31.6825 91.0625 -34.0625 91.0625 C-34.50260417 89.7421875 -34.94270833 88.421875 -35.3828125 87.1015625 C-35.66785645 86.2465918 -35.95290039 85.39162109 -36.24658203 84.51074219 C-36.88076066 82.60787719 -37.51454137 80.70487952 -38.14794922 78.80175781 C-39.65211113 74.28401016 -41.15954061 69.76757323 -42.6875 65.2578125 C-45.08397521 58.16631234 -47.38309016 51.07356988 -49.4375 43.875 C-51.48421272 36.73418965 -53.82280345 29.70759005 -56.25 22.6875 C-56.59530762 21.68178955 -56.94061523 20.6760791 -57.29638672 19.63989258 C-57.62525879 18.69911865 -57.95413086 17.75834473 -58.29296875 16.7890625 C-58.58582764 15.94939941 -58.87868652 15.10973633 -59.18041992 14.24462891 C-60.07011107 11.83176611 -60.07011107 11.83176611 -62.0625 9.0625 C-64.12175139 8.33867533 -64.12175139 8.33867533 -66.0625 8.0625 C-66.3925 5.7525 -66.7225 3.4425 -67.0625 1.0625 C-56.1725 1.0625 -45.2825 1.0625 -34.0625 1.0625 C-34.0625 3.0425 -34.0625 5.0225 -34.0625 7.0625 C-36.3725 7.7225 -38.6825 8.3825 -41.0625 9.0625 C-42.1608097 13.07726111 -41.91158984 15.49960546 -40.5859375 19.421875 C-40.24715576 20.44740479 -39.90837402 21.47293457 -39.55932617 22.52954102 C-39.18912354 23.61291748 -38.8189209 24.69629395 -38.4375 25.8125 C-37.68974988 28.06585728 -36.9436609 30.31976645 -36.19921875 32.57421875 C-35.83231934 33.67813965 -35.46541992 34.78206055 -35.08740234 35.91943359 C-33.30472141 41.3863784 -31.73624358 46.90998204 -30.16796875 52.44140625 C-29.35224466 55.11340707 -28.48183639 57.68207301 -27.4934082 60.28881836 C-27.22494583 60.99864365 -26.95648346 61.70846893 -26.67988586 62.43980408 C-26.37427986 63.24303856 -26.37427986 63.24303856 -26.0625 64.0625 C-25.86062576 63.46496414 -25.65875153 62.86742828 -25.45075989 62.25178528 C-23.3284112 55.97152381 -21.20224875 49.69256248 -19.07397461 43.41430664 C-18.28265255 41.07836775 -17.49226829 38.74211095 -16.70288086 36.40551758 C-4.43228581 0.09045481 -4.43228581 0.09045481 0 0 Z " fill="#2D2728" transform="translate(878.0625,404.9375)"/>
<path d="M0 0 C2.13086442 2.13086442 1.25960872 6.89166935 1.31640625 9.84765625 C1.33718735 10.7340831 1.35796844 11.62050995 1.37937927 12.53379822 C1.444974 15.376617 1.50380552 18.21953117 1.5625 21.0625 C1.6056758 22.98503606 1.64928978 24.90756234 1.69335938 26.83007812 C1.80066543 31.55328668 1.90190451 36.27659153 2 41 C2.53109375 40.59007812 3.0621875 40.18015625 3.609375 39.7578125 C4.31578125 39.21898437 5.0221875 38.68015625 5.75 38.125 C6.44609375 37.59132813 7.1421875 37.05765625 7.859375 36.5078125 C14.00935684 32.17589099 19.63326878 32.43332837 27 33 C32.71509839 34.19106254 35.76018576 37.37169394 39 42 C41.22734244 46.34373141 41.29499061 50.47622942 41.30859375 55.2578125 C41.33373513 56.86849349 41.3591334 58.47917049 41.38476562 60.08984375 C41.41358626 62.61571371 41.43762211 65.14151484 41.45629883 67.66748047 C41.47790644 70.11460185 41.5173171 72.56095558 41.55859375 75.0078125 C41.55876747 76.14224289 41.55876747 76.14224289 41.5589447 77.29959106 C41.60506444 81.37249967 41.60506444 81.37249967 43.39086914 84.92529297 C45.19660276 86.13130714 47.0189973 87.11196431 49 88 C49 89.98 49 91.96 49 94 C38.44 94 27.88 94 17 94 C17.33 91.69 17.66 89.38 18 87 C18.94875 86.7525 19.8975 86.505 20.875 86.25 C23.98557391 85.33090304 23.98557391 85.33090304 25.17651367 83.35913086 C26.90309381 78.41280892 26.33163891 72.92283471 26.31567383 67.72827148 C26.31251523 65.57288984 26.33598427 63.41888387 26.36132812 61.26367188 C26.36360156 59.88541839 26.36430441 58.50716123 26.36328125 57.12890625 C26.36626221 55.88181885 26.36924316 54.63473145 26.37231445 53.34985352 C25.97227922 49.75058572 25.13763802 47.88546512 23 45 C19.98954014 42.65853122 16.71321148 42.56681165 12.95703125 42.69921875 C9.60294345 43.21471727 8.22170922 44.46972006 6 47 C1.57824745 54.17322083 1.41888148 61.07064997 1.5625 69.3125 C1.55541016 70.47845703 1.54832031 71.64441406 1.54101562 72.84570312 C1.34753544 80.0781968 1.34753544 80.0781968 5 86 C7.59855733 86.8042208 7.59855733 86.8042208 10 87 C10.495 90.465 10.495 90.465 11 94 C-0.22 94 -11.44 94 -23 94 C-22.67 91.69 -22.34 89.38 -22 87 C-18.535 86.505 -18.535 86.505 -15 86 C-13.83118821 82.49356462 -13.88001573 79.75098532 -13.88647461 76.05004883 C-13.88632858 75.34735367 -13.88618256 74.64465851 -13.8860321 73.92066956 C-13.88672843 71.59942532 -13.89450774 69.27826146 -13.90234375 66.95703125 C-13.90420892 65.3470616 -13.90563236 63.73709139 -13.90663147 62.12712097 C-13.91044882 57.89057853 -13.92027245 53.6540704 -13.93133545 49.4175415 C-13.94156636 45.09412093 -13.94613269 40.77069481 -13.95117188 36.44726562 C-13.96189541 27.96482801 -13.97896247 19.48241827 -14 11 C-18.455 10.01 -18.455 10.01 -23 9 C-22.67 7.02 -22.34 5.04 -22 3 C-20.0509375 2.8453125 -20.0509375 2.8453125 -18.0625 2.6875 C-13.7578841 2.2325958 -10.05500533 1.11655949 -6.04296875 -0.4765625 C-3.64270238 -1.09154471 -2.31067454 -0.83204333 0 0 Z " fill="#2F292A" transform="translate(609,402)"/>
<path d="M0 0 C2.15456969 2.15456969 1.26026626 7.0711627 1.31640625 10.06640625 C1.33718735 10.97502914 1.35796844 11.88365204 1.37937927 12.81980896 C1.44497672 15.73395946 1.5038068 18.64820304 1.5625 21.5625 C1.60567554 23.53321291 1.64928951 25.50391626 1.69335938 27.47460938 C1.80066843 32.31630988 1.90190675 37.15810437 2 42 C2.76441406 41.22269531 3.52882813 40.44539063 4.31640625 39.64453125 C10.88882471 33.16778118 15.52397941 32.55638009 24.59765625 32.56640625 C29.57145902 33.2002663 33.63412971 34.91461267 36.75 38.9375 C40.58477482 44.15705462 41.29026776 47.6659716 41.30859375 54.125 C41.33374546 55.73437875 41.3591436 57.34375367 41.38476562 58.953125 C41.41353744 61.48111038 41.4375669 64.00902942 41.45629883 66.53710938 C41.47795386 68.98341356 41.51738122 71.42895858 41.55859375 73.875 C41.55876747 75.00639404 41.55876747 75.00639404 41.5589447 76.16064453 C41.63830782 80.37033488 41.92668819 83.00082816 45 86 C47.08334635 87.2516467 47.08334635 87.2516467 49 88 C49 89.98 49 91.96 49 94 C38.77 94 28.54 94 18 94 C18 91.69 18 89.38 18 87 C18.94875 86.7525 19.8975 86.505 20.875 86.25 C23.9830279 85.33113081 23.9830279 85.33113081 25.17211914 83.37060547 C26.9406306 78.30653991 26.41202243 72.67603962 26.42553711 67.35595703 C26.43742749 65.1385221 26.48662573 62.9238788 26.53710938 60.70703125 C26.54657576 59.28647182 26.55380977 57.86589541 26.55859375 56.4453125 C26.57204834 55.16156738 26.58550293 53.87782227 26.59936523 52.55517578 C25.81286242 47.88998066 24.33076605 46.29830731 21 43 C16.66510295 41.59775504 12.7673891 42.66698209 8.6875 44.4375 C3.40059052 49.47850671 1.78221141 55.21688241 1.50390625 62.42578125 C1.50259219 64.72143688 1.52250307 67.01719245 1.5625 69.3125 C1.55541016 70.47845703 1.54832031 71.64441406 1.54101562 72.84570312 C1.34753544 80.0781968 1.34753544 80.0781968 5 86 C7.59855733 86.8042208 7.59855733 86.8042208 10 87 C10.495 90.465 10.495 90.465 11 94 C-0.22 94 -11.44 94 -23 94 C-22.67 91.69 -22.34 89.38 -22 87 C-20.2984375 86.5978125 -20.2984375 86.5978125 -18.5625 86.1875 C-16.7990625 85.5996875 -16.7990625 85.5996875 -15 85 C-13.8607275 81.58218251 -13.8729696 78.96189857 -13.87060547 75.35717773 C-13.86885315 74.68695587 -13.86710083 74.01673401 -13.86529541 73.32620239 C-13.86089591 71.11197314 -13.86380786 68.89782381 -13.8671875 66.68359375 C-13.86651399 65.1456755 -13.86554358 63.60775736 -13.86428833 62.06983948 C-13.862814 58.84773749 -13.86495771 55.62566322 -13.86962891 52.40356445 C-13.87533083 48.2684455 -13.87204259 44.13339139 -13.86605644 39.9982748 C-13.86244778 36.823344 -13.86359074 33.64842865 -13.86618423 30.47349739 C-13.86685241 28.94842585 -13.86602889 27.42335292 -13.86370468 25.898283 C-13.86117264 23.76995995 -13.86502632 21.64174287 -13.87060547 19.51342773 C-13.87140106 18.30113998 -13.87219666 17.08885223 -13.87301636 15.83982849 C-13.80476793 13.05145367 -13.80476793 13.05145367 -15 11 C-16.88764903 10.31527335 -16.88764903 10.31527335 -19.0625 9.875 C-20.16271484 9.62363281 -20.16271484 9.62363281 -21.28515625 9.3671875 C-21.85105469 9.24601562 -22.41695312 9.12484375 -23 9 C-22.67 7.02 -22.34 5.04 -22 3 C-21.11957031 2.87882812 -20.23914062 2.75765625 -19.33203125 2.6328125 C-18.17058594 2.46523438 -17.00914063 2.29765625 -15.8125 2.125 C-14.08966797 1.88136719 -14.08966797 1.88136719 -12.33203125 1.6328125 C-1.21704145 -0.47812343 -1.21704145 -0.47812343 0 0 Z " fill="#2F292A" transform="translate(1187,402)"/>
<path d="M0 0 C2.04698414 2.04698414 1.70045693 6.30411241 2 9 C2.53109375 8.51789063 3.0621875 8.03578125 3.609375 7.5390625 C4.31578125 6.90742188 5.0221875 6.27578125 5.75 5.625 C6.44609375 4.99851562 7.1421875 4.37203125 7.859375 3.7265625 C12.2132749 0.21484031 15.25204881 -0.29436145 20.875 -0.3125 C22.06867187 -0.32925781 23.26234375 -0.34601563 24.4921875 -0.36328125 C29.98886928 0.20597421 33.83194425 2.22201234 37.3125 6.5 C38.04919922 7.38171875 38.04919922 7.38171875 38.80078125 8.28125 C41.54410238 12.21304575 41.16682964 16.439609 41.2109375 21.02734375 C41.23900032 22.63998421 41.26766475 24.25261429 41.296875 25.86523438 C41.3381632 28.40421318 41.37505696 30.94299698 41.40136719 33.48217773 C41.42897936 35.93513796 41.47484086 38.3872215 41.5234375 40.83984375 C41.52669037 41.5972435 41.52994324 42.35464325 41.53329468 43.13499451 C41.6313986 47.34401051 41.90641337 50.01660222 45 53 C45.886875 53.474375 46.77375 53.94875 47.6875 54.4375 C48.450625 54.953125 49.21375 55.46875 50 56 C50 57.65 50 59.3 50 61 C39.44 61 28.88 61 18 61 C18 59.02 18 57.04 18 55 C18.94875 54.5875 19.8975 54.175 20.875 53.75 C24.23246122 51.86982172 24.7795999 51.4794463 26 48 C26.3084835 44.59301222 26.3084835 44.59301222 26.265625 40.78515625 C26.26753845 40.09240097 26.2694519 39.39964569 26.27142334 38.68589783 C26.27278105 37.22426998 26.26911353 35.7626299 26.26074219 34.30102539 C26.25005256 32.07345227 26.26064257 29.84668852 26.2734375 27.61914062 C26.27211551 26.19531073 26.26955231 24.77148134 26.265625 23.34765625 C26.26336914 22.05867432 26.26111328 20.76969238 26.25878906 19.44165039 C26.00990078 16.13167108 25.60987912 13.89180746 24 11 C19.05724228 9.35241409 14.08774822 9.21129512 9.1875 11.0625 C5.29980358 14.50588825 2.97567389 18.87934513 2 24 C1.7773988 27.8096606 1.81486256 31.62197181 1.8125 35.4375 C1.79413086 36.99307617 1.79413086 36.99307617 1.77539062 38.58007812 C1.77345703 39.58361328 1.77152344 40.58714844 1.76953125 41.62109375 C1.76336792 42.98899048 1.76336792 42.98899048 1.75708008 44.38452148 C2.02517683 47.27107475 2.72902697 49.40186894 4 52 C5.68046157 53.21526985 5.68046157 53.21526985 7.625 53.8125 C8.73875 54.204375 9.8525 54.59625 11 55 C11 56.98 11 58.96 11 61 C0.11 61 -10.78 61 -22 61 C-22 58.69 -22 56.38 -22 54 C-20.865625 53.71125 -19.73125 53.4225 -18.5625 53.125 C-17.386875 52.75375 -16.21125 52.3825 -15 52 C-13.36054037 48.72108075 -13.87969822 45.09386466 -13.90234375 41.4921875 C-13.90446617 40.23125778 -13.90446617 40.23125778 -13.90663147 38.94485474 C-13.91223763 36.25486725 -13.92479114 33.56496241 -13.9375 30.875 C-13.94251421 29.05338662 -13.94707725 27.23177193 -13.95117188 25.41015625 C-13.96220906 20.94007223 -13.9794778 16.47005014 -14 12 C-16.64 11.01 -19.28 10.02 -22 9 C-22 7.35 -22 5.7 -22 4 C-18.01363392 2.56047892 -13.96793159 1.40328128 -9.875 0.3125 C-8.86179687 0.04050781 -7.84859375 -0.23148437 -6.8046875 -0.51171875 C-4.05796707 -0.98990824 -2.57554875 -0.97918328 0 0 Z " fill="#30292B" transform="translate(754,435)"/>
<path d="M0 0 C4.51063052 3.58800155 6.71934609 7.4453264 8 13 C8.45295184 18.45567597 8.51594164 23.90288081 8.5625 29.375 C8.58631119 31.58342807 8.61435976 33.7914662 8.65428162 35.99966431 C8.68964718 37.98708406 8.7096069 39.97476023 8.72875977 41.96240234 C8.68251826 45.11012765 8.68251826 45.11012765 11 47 C13.57061311 47.64767793 13.57061311 47.64767793 16 48 C16 50.31 16 52.62 16 55 C14.33546815 55.47558053 12.67058091 55.94995304 11.00390625 56.41796875 C9.1151309 56.96656042 7.24409749 57.57520944 5.375 58.1875 C2.03726804 58.99102806 0.23990737 58.98179011 -3 58 C-3.66 55.69 -4.32 53.38 -5 51 C-5.45890625 51.40992188 -5.9178125 51.81984375 -6.390625 52.2421875 C-7.00421875 52.78101563 -7.6178125 53.31984375 -8.25 53.875 C-8.85328125 54.40867187 -9.4565625 54.94234375 -10.078125 55.4921875 C-15.89808008 60.05824982 -21.84309018 59.55858808 -29 59 C-34.11763524 57.87059084 -37.09852012 55.35221981 -40 51 C-41.6311236 47.73775279 -41.52746075 44.52467886 -41 41 C-38.40868111 34.22464914 -33.40194918 30.09564924 -27 27 C-19.93790929 24.42469625 -13.55068819 22.75023169 -6 23 C-6.11455681 21.08268082 -6.24206258 19.1661325 -6.375 17.25 C-6.47941406 15.64898437 -6.47941406 15.64898437 -6.5859375 14.015625 C-7.14776044 9.92385793 -8.00694445 7.82281746 -11.1875 5.1875 C-14.94120071 3.60260415 -17.09737951 3.93564896 -21 5 C-25.58428922 8.05619281 -26.57273411 12.93969366 -28 18 C-30.64 18 -33.28 18 -36 18 C-36.33 12.72 -36.66 7.44 -37 2 C-25.84234769 -2.78185099 -11.1758328 -7.04563372 0 0 Z " fill="#2D2729" transform="translate(1051,437)"/>
<path d="M0 0 C7.41489532 6.58176101 10.53451712 13.13491569 11.3125 22.9375 C11 26 11 26 9 29 C6.04296875 29.51171875 6.04296875 29.51171875 2.1875 29.6875 C1.49914062 29.72093506 0.81078125 29.75437012 0.1015625 29.78881836 C-9.25736524 30.18599508 -18.63533637 30.088784 -28 30 C-25.0652359 40.71707745 -25.0652359 40.71707745 -18 49 C-12.47103984 50.9345637 -5.5942323 50.95216199 -0.1875 48.6875 C2.60595801 47.20861047 5.333503 45.69686173 8 44 C10 46 10 46 10 48.3125 C8.61283355 52.04050984 6.27540479 53.93827164 3 56 C-2.85519894 58.59883161 -7.62543381 59.49732955 -14 59.4375 C-15.13308594 59.4674707 -15.13308594 59.4674707 -16.2890625 59.49804688 C-23.39638054 59.49194093 -29.49454378 56.99384633 -34.6875 52.0625 C-40.54594407 45.77407838 -43.24851645 37.2973364 -43.5 28.8125 C-43.03062275 19.42495502 -40.29719249 11.11148463 -34 4 C-24.82028691 -3.5860129 -10.62704286 -7.01384829 0 0 Z " fill="#2E2829" transform="translate(988,437)"/>
<path d="M0 0 C5.66192758 4.02388564 9.50780574 9.47791872 10.86328125 16.32421875 C11.13312187 20.34184582 11.19733165 24.30918987 10.86328125 28.32421875 C6.87686441 32.31063559 -9.21215195 30.38156923 -14.77050781 30.39233398 C-18.8927305 30.38425808 -23.01467279 30.36329882 -27.13671875 30.32421875 C-26.56788883 32.39076576 -25.9809891 34.45234341 -25.38671875 36.51171875 C-25.061875 37.66027344 -24.73703125 38.80882812 -24.40234375 39.9921875 C-22.71217596 44.44191937 -20.8185548 47.48330073 -16.51171875 49.63671875 C-8.17700112 51.3345316 -2.67949081 50.72677223 4.63671875 46.22265625 C6.86328125 45.32421875 6.86328125 45.32421875 9.15234375 46.17578125 C9.71695313 46.55476563 10.2815625 46.93375 10.86328125 47.32421875 C10.48215471 49.9136373 10.09000139 51.10279581 8.19140625 52.95703125 C7.505625 53.44945312 6.81984375 53.941875 6.11328125 54.44921875 C5.4378125 54.94679688 4.76234375 55.444375 4.06640625 55.95703125 C-3.97232033 60.94560271 -13.97005174 60.43090502 -23.13671875 59.32421875 C-30.37830305 57.00963481 -35.53843165 51.93889174 -39.13671875 45.32421875 C-43.39601266 36.17402462 -43.97332461 24.46966748 -40.63671875 14.94921875 C-37.33517127 7.97411844 -31.83807638 1.01914386 -24.59765625 -2.0859375 C-16.56821703 -4.01045389 -7.38179133 -3.9619784 0 0 Z " fill="#2E2829" transform="translate(710.13671875,436.67578125)"/>
<path d="M0 0 C1.97850479 1.97850479 1.15399458 5.88620295 1.15771484 8.59326172 C1.16533592 9.78594162 1.16533592 9.78594162 1.17311096 11.00271606 C1.18383792 12.73516603 1.19244891 14.46763005 1.19923019 16.20009995 C1.21098122 18.93988129 1.23042388 21.67950228 1.25234985 24.41921997 C1.31409488 32.21090379 1.36804387 40.0025724 1.40136719 47.79443359 C1.4222784 52.55490154 1.45755462 57.31507959 1.50212479 62.07538223 C1.5163156 63.89265664 1.52501415 65.70998236 1.52817917 67.52730942 C1.5330718 70.06783246 1.55618669 72.60758247 1.58349609 75.14794922 C1.58048996 75.90235291 1.57748383 76.65675659 1.5743866 77.434021 C1.61796168 81.41987605 1.61796168 81.41987605 3.35806274 84.90481567 C5.12572615 86.1293621 5.12572615 86.1293621 7.6875 87.375 C8.450625 87.91125 9.21375 88.4475 10 89 C10 90.65 10 92.3 10 94 C-0.89 94 -11.78 94 -23 94 C-23 92.02 -23 90.04 -23 88 C-17.25 86 -17.25 86 -15 86 C-13.88500498 82.39981495 -13.85360467 79.01483707 -13.82299805 75.25952148 C-13.81314125 74.25637909 -13.81314125 74.25637909 -13.80308533 73.23297119 C-13.78343827 71.0290108 -13.77171351 68.82511802 -13.76171875 66.62109375 C-13.75764322 65.86725969 -13.7535677 65.11342564 -13.74936867 64.33674812 C-13.72855183 60.35218712 -13.71422717 56.36766018 -13.70483398 52.38305664 C-13.69373511 48.26466072 -13.65928363 44.14679999 -13.61966228 40.02859402 C-13.59356351 36.86219761 -13.58514857 33.69593063 -13.58155251 30.52943611 C-13.57667467 29.01073626 -13.56502664 27.49204265 -13.54651451 25.9734478 C-13.52224831 23.85222108 -13.52306306 21.73240605 -13.5300293 19.61108398 C-13.52416306 18.40403305 -13.51829681 17.19698212 -13.51225281 15.95335388 C-13.72001962 12.92052541 -13.72001962 12.92052541 -15.85749817 11.129776 C-18.23964171 9.87363303 -20.34156028 9.36922774 -23 9 C-22.67 7.02 -22.34 5.04 -22 3 C-19.08559401 2.3013821 -16.16913913 1.6157969 -13.25 0.9375 C-12.425 0.73833984 -11.6 0.53917969 -10.75 0.33398438 C-9.55117187 0.05844727 -9.55117187 0.05844727 -8.328125 -0.22265625 C-7.5949707 -0.39547119 -6.86181641 -0.56828613 -6.10644531 -0.74633789 C-3.77654817 -1.02690849 -2.21064305 -0.75384735 0 0 Z " fill="#2E2829" transform="translate(1099,402)"/>
<path d="M0 0 C1.20029908 2.40059817 1.11459743 3.89360649 1.09765625 6.5703125 C1.09443359 7.46621094 1.09121094 8.36210937 1.08789062 9.28515625 C1.07951172 10.22230469 1.07113281 11.15945313 1.0625 12.125 C1.05798828 13.06988281 1.05347656 14.01476562 1.04882812 14.98828125 C1.03702375 17.3255477 1.01908799 19.66278169 1 22 C6.61 22 12.22 22 18 22 C17 28 17 28 16 29 C10.92090448 29.93289509 6.13500056 30.03740375 1 30 C1.06905529 35.30237781 1.15710821 40.60398045 1.26245117 45.90576172 C1.29561773 47.70775729 1.32367525 49.50985467 1.34643555 51.31201172 C1.38013432 53.90896823 1.43245649 56.50499866 1.48828125 59.1015625 C1.49467117 59.9017984 1.5010611 60.7020343 1.50764465 61.52651978 C1.63470864 66.40731544 2.42399153 69.71165063 5 74 C6.43791516 73.85831863 7.8753237 73.71148957 9.3125 73.5625 C10.11300781 73.48128906 10.91351562 73.40007812 11.73828125 73.31640625 C14.16087179 73.04734307 14.16087179 73.04734307 17 72 C18 73 18 73 18.0625 75.5625 C18.041875 76.366875 18.02125 77.17125 18 78 C13.23535171 81.81171864 8.9530329 82.45821613 2.9375 82.5625 C1.91076172 82.60213867 1.91076172 82.60213867 0.86328125 82.64257812 C-2.89004305 82.61721783 -5.44221553 82.04351552 -8.37109375 79.77734375 C-13.47152509 74.38892372 -13.27694485 69.3853378 -13.1953125 62.32421875 C-13.1924826 61.3990596 -13.18965271 60.47390045 -13.18673706 59.52070618 C-13.17557392 56.57617058 -13.15047637 53.63194312 -13.125 50.6875 C-13.11496521 48.68685336 -13.10584023 46.68620194 -13.09765625 44.68554688 C-13.07564722 39.7902465 -13.04114391 34.89517543 -13 30 C-16.3 29.67 -19.6 29.34 -23 29 C-22.67 26.69 -22.34 24.38 -22 22 C-19.03 22 -16.06 22 -13 22 C-13 16.39 -13 10.78 -13 5 C-3.375 0 -3.375 0 0 0 Z " fill="#2F292A" transform="translate(1138,414)"/>
<path d="M0 0 C0.05632424 2.80435411 -0.04185298 5.35146678 -0.3125 8.125 C-0.37373047 8.87910156 -0.43496094 9.63320313 -0.49804688 10.41015625 C-0.6514533 12.27463438 -0.82393459 14.13752498 -1 16 C-3.31 16.33 -5.62 16.66 -8 17 C-8.23783203 16.11248047 -8.23783203 16.11248047 -8.48046875 15.20703125 C-10.01284039 10.01728642 -11.30274795 6.09818752 -16 3 C-20.56863559 2.16933898 -24.50430679 2.00287119 -28.4375 4.625 C-32.41289217 10.6675961 -33.52665871 15.13766264 -33.4375 22.25 C-33.42920166 23.09393311 -33.42090332 23.93786621 -33.41235352 24.80737305 C-33.19010692 33.01151516 -31.75069249 39.54630112 -25.9375 45.625 C-22.06129163 48.55924806 -18.40455335 48.72688969 -13.65234375 48.47265625 C-9.7275999 47.77325418 -7.29648845 46.22008406 -4 44 C-1.5625 43.25 -1.5625 43.25 0 43 C0.75 45.1875 0.75 45.1875 1 48 C-1.32280108 52.32885656 -4.6699634 54.4736092 -9.11328125 56.265625 C-16.98842349 58.26904414 -26.08226335 58.37411286 -33.5625 55 C-42.00572513 49.95396478 -45.96500853 43.28011031 -48.5546875 34.015625 C-50.61460903 24.69176966 -48.26266149 14.18964146 -43.375 6.125 C-39.69281994 1.07462834 -34.71646199 -3.00408535 -28.609375 -4.640625 C-18.70676675 -6.00445727 -8.51087218 -5.67391478 0 0 Z " fill="#2E2829" transform="translate(576,439)"/>
<path d="M0 0 C2.01376915 1.44958434 3.69490484 3.00573139 5.421875 4.78515625 C5.94265625 5.18605469 6.4634375 5.58695313 7 6 C10.36143418 4.87952194 11.57528834 3.50292817 14 1 C17.14911479 -0.57455739 19.52008816 -0.34799118 23 0 C25.97672584 1.77280561 28.42804007 3.85608015 30 7 C30.77865835 14.4751202 28.47851532 20.70807232 23.9765625 26.6875 C19.7947365 31.48304108 15.60542799 35.93287902 10 39 C2.32242399 38.70672288 -2.02099366 33.31881983 -7 28 C-11.57245872 22.30666619 -13.97964345 16.83583512 -14.3125 9.4921875 C-13.79369367 5.35470703 -12.08403132 3.72542303 -9 1 C-5.79745853 -0.60127074 -3.54685436 -0.40701607 0 0 Z " fill="#FEFCFC" transform="translate(1475,24)"/>
<path d="M0 0 C1.59230112 1.59230112 1.15658471 3.26456758 1.18945312 5.47216797 C1.20617065 6.42340546 1.22288818 7.37464294 1.2401123 8.35470581 C1.25368774 9.39007477 1.26726318 10.42544373 1.28125 11.4921875 C1.30886414 13.07750778 1.30886414 13.07750778 1.33703613 14.69485474 C1.39599548 18.08817797 1.44870761 21.48155272 1.5 24.875 C1.56756053 29.33083815 1.64127842 33.78651193 1.71875 38.2421875 C1.73232544 39.273508 1.74590088 40.30482849 1.7598877 41.36740112 C1.77660522 42.32494293 1.79332275 43.28248474 1.81054688 44.26904297 C1.82307495 45.11207977 1.83560303 45.95511658 1.84851074 46.82369995 C1.92161978 49.18083814 1.92161978 49.18083814 3 52 C6.00847418 53.22520264 6.00847418 53.22520264 9 54 C9.495 57.465 9.495 57.465 10 61 C-0.89 61 -11.78 61 -23 61 C-23 59.02 -23 57.04 -23 55 C-17.25 53 -17.25 53 -15 53 C-13.81071605 48.7688986 -13.87455642 44.66075948 -13.90234375 40.296875 C-13.9037587 39.45908508 -13.90517365 38.62129517 -13.90663147 37.75811768 C-13.91221803 35.08870843 -13.92476806 32.4193838 -13.9375 29.75 C-13.94251674 27.93750121 -13.94707934 26.12500111 -13.95117188 24.3125 C-13.96218306 19.87496752 -13.97943845 15.43749809 -14 11 C-18.455 10.01 -18.455 10.01 -23 9 C-22.67 7.02 -22.34 5.04 -22 3 C-19.08559401 2.3013821 -16.16913913 1.6157969 -13.25 0.9375 C-12.425 0.73833984 -11.6 0.53917969 -10.75 0.33398438 C-9.55117188 0.05844727 -9.55117188 0.05844727 -8.328125 -0.22265625 C-7.5949707 -0.39547119 -6.86181641 -0.56828613 -6.10644531 -0.74633789 C-3.77654817 -1.02690849 -2.21064305 -0.75384735 0 0 Z " fill="#2F292A" transform="translate(508,435)"/>
<path d="M0 0 C4.47126689 3.77573648 6.61769643 7.04620187 7.37109375 12.8671875 C7.49875326 18.64941248 7.50142461 23.07810801 3.62890625 27.6015625 C-4.08902795 34.22751081 -11.91869568 34 -22 34 C-22 22.12 -22 10.24 -22 -2 C-14.30386476 -3.92403381 -6.95189585 -4.03209959 0 0 Z " fill="#FBF0E0" transform="translate(443,415)"/>
<path d="M0 0 C2.41049138 1.08922007 3.95375076 2.27684275 6 4 C8.49361571 2.79618552 10.68143083 1.54571278 13 0 C18.59250394 -0.82023391 23.27107498 -0.22426706 28 3 C31.15800038 5.74608728 32.64197461 7.33639329 33.51953125 11.4140625 C34.0944531 20.69303378 29.91374127 28.56473423 24.3125 35.75 C19.95930424 40.43805697 12.67204294 47.63753489 6 48 C3.81640625 46.92578125 3.81640625 46.92578125 1.5625 45.3125 C0.82128906 44.79300781 0.08007812 44.27351563 -0.68359375 43.73828125 C-10.31898202 36.50767791 -17.07337662 29.22029689 -19 17 C-19.18755859 15.89785156 -19.18755859 15.89785156 -19.37890625 14.7734375 C-19.76006635 10.57256657 -18.77806091 8.25687215 -16.1875 5.125 C-11.23473419 -0.13349209 -7.02942171 -0.93725623 0 0 Z M-14 9 C-16.00865826 13.01731652 -14.86989323 17.73918541 -14 22 C-10.75558135 30.26643067 -4.21469898 36.98416293 3 42 C5.9730239 43.13917145 5.9730239 43.13917145 9 43 C17.66322049 38.42067789 25.59468017 29.30129683 28.55859375 19.90625 C29.44565994 16.07538009 30.07272533 12.7640372 27.9453125 9.265625 C26.17251059 7.06273505 24.54821425 5.27410713 22 4 C17.00308353 3.62287423 14.00932275 3.90709388 10 7 C9.01 8.485 9.01 8.485 8 10 C5.45595798 8.86931466 3.76141473 7.78075948 1.6875 5.875 C-4.7044109 1.41552728 -9.16025252 4.16025252 -14 9 Z " fill="#E06560" transform="translate(1476,20)"/>
<path d="M0 0 C1.32 0 2.64 0 4 0 C3.42655063 2.86724686 3.1385485 3.8614515 1 6 C1.33 6.33 1.66 6.66 2 7 C2.42575554 10.15059098 2.28113159 11.57830261 0.5 14.25 C-2.97753694 16.68427586 -5.79748001 16.58663738 -10 17 C-10.33 17.66 -10.66 18.32 -11 19 C-10.16855469 18.96519531 -9.33710937 18.93039062 -8.48046875 18.89453125 C-6.85044922 18.85392578 -6.85044922 18.85392578 -5.1875 18.8125 C-4.10855469 18.77769531 -3.02960937 18.74289062 -1.91796875 18.70703125 C1 19 1 19 2.890625 20.35546875 C4 22 4 22 3.9375 24.5 C2.78191759 27.58155309 1.81996926 28.34314937 -1 30 C-3.91015625 30.36328125 -3.91015625 30.36328125 -7.0625 30.3125 C-8.10535156 30.30863281 -9.14820313 30.30476562 -10.22265625 30.30078125 C-13 30 -13 30 -16 28 C-16.31845551 24.89505874 -15.99424641 22.98273923 -15 20 C-14.18125872 16.27017861 -13.9721995 13.38225685 -14.25 9.5625 C-14 6 -14 6 -12.5625 4.0625 C-8.74098146 2.47796792 -5.08137509 2.76453605 -1 3 C-0.67 2.01 -0.34 1.02 0 0 Z " fill="#BF644C" transform="translate(766,523)"/>
<path d="M0 0 C3.81224077 0.90540718 5.19468387 3.31894776 7.1875 6.51953125 C9.80173716 11.25005564 9.1875 13.45805626 9.1875 19.51953125 C1.2675 19.51953125 -6.6525 19.51953125 -14.8125 19.51953125 C-14.8125 11.57545438 -13.3814128 8.32532798 -9.125 2.01953125 C-6.03248358 0.01357465 -3.6458036 -0.16190246 0 0 Z " fill="#FAEFDF" transform="translate(974.8125,440.48046875)"/>
<path d="M0 0 C4.83277772 3.59887702 5.37903798 7.01209126 6.3125 12.875 C6.539375 14.89625 6.76625 16.9175 7 19 C-0.92 19 -8.84 19 -17 19 C-17 10.88287324 -16.38379427 7.01042283 -11.3125 1 C-7.52533345 -0.63769364 -4.03569528 -0.83596545 0 0 Z " fill="#FAEFDF" transform="translate(700,441)"/>
<path d="M0 0 C3.1875 0.4375 3.1875 0.4375 6.0625 2.25 C9.15173078 6.88384617 9.07074196 11.02139365 8.1875 16.4375 C6.625 19.125 6.625 19.125 4.1875 20.4375 C-1.78308824 20.95220588 -1.78308824 20.95220588 -4.8125 19.4375 C-4.8125 22.0775 -4.8125 24.7175 -4.8125 27.4375 C-6.1325 27.4375 -7.4525 27.4375 -8.8125 27.4375 C-8.8125 18.8575 -8.8125 10.2775 -8.8125 1.4375 C-7.4925 1.7675 -6.1725 2.0975 -4.8125 2.4375 C-2.8125 0.4375 -2.8125 0.4375 0 0 Z " fill="#BE6148" transform="translate(872.8125,525.5625)"/>
<path d="M0 0 C0.50674307 6.86918388 0.22604395 12.33918804 -4 18 C-7.10107622 20.69658802 -9.09208911 21.83657604 -13.125 22.5625 C-16 22 -16 22 -18.375 20 C-20.45387076 16.16208475 -20.84984664 13.2752489 -20 9 C-17.07351312 3.93492656 -12.99189268 1.80270291 -7.4375 0.3125 C-4.93014358 -0.00895595 -2.52495257 -0.02100626 0 0 Z " fill="#F8EDDE" transform="translate(1045,466)"/>
<path d="M0 0 C4.6 2.2 4.6 2.2 6 5 C6.46351314 9.78710293 6.84836883 14.34182456 4.625 18.6875 C0.59351211 20.70324394 -3.58463679 20.81820587 -8 20 C-10.48692795 18.09168616 -10.98398734 17.04803797 -12 14 C-12.62805899 9.20880716 -12.68844911 6.02224261 -9.9375 1.9375 C-6.24975797 -0.49484049 -4.34495691 -0.62070813 0 0 Z " fill="#BD5F47" transform="translate(720,526)"/>
<path d="M0 0 C1.4540625 0.0309375 1.4540625 0.0309375 2.9375 0.0625 C4.44298369 3.85201244 5.94095314 7.64445031 7.4375 11.4375 C7.86675781 12.51773438 8.29601562 13.59796875 8.73828125 14.7109375 C9.34736328 16.2578125 9.34736328 16.2578125 9.96875 17.8359375 C10.34580078 18.78903809 10.72285156 19.74213867 11.11132812 20.72412109 C11.9375 23.0625 11.9375 23.0625 11.9375 25.0625 C10.2875 24.7325 8.6375 24.4025 6.9375 24.0625 C6.4425 21.5875 6.4425 21.5875 5.9375 19.0625 C1.6475 19.0625 -2.6425 19.0625 -7.0625 19.0625 C-7.3925 21.0425 -7.7225 23.0225 -8.0625 25.0625 C-9.3825 25.0625 -10.7025 25.0625 -12.0625 25.0625 C-11.42440624 19.57666613 -9.59399832 14.83690444 -7.5625 9.75 C-7.08103516 8.51540039 -7.08103516 8.51540039 -6.58984375 7.25585938 C-3.76081353 0.0767513 -3.76081353 0.0767513 0 0 Z " fill="#BD6047" transform="translate(409.0625,520.9375)"/>
<path d="M0 0 C0.33 0 0.66 0 1 0 C1.12375 0.78375 1.2475 1.5675 1.375 2.375 C1.79117993 5.14057822 1.79117993 5.14057822 4 7 C4.48043027 16.60860531 -1.19298262 24.61154311 -7.38867188 31.55664062 C-12.20867823 36.55046136 -17.19533899 41.19468177 -24 43 C-26.4375 42.6875 -26.4375 42.6875 -28 42 C-28.33 40.68 -28.66 39.36 -29 38 C-30.65 37.67 -32.3 37.34 -34 37 C-34 36.34 -34 35.68 -34 35 C-34.9075 34.773125 -35.815 34.54625 -36.75 34.3125 C-40.5373859 32.78297877 -41.84588481 31.43062789 -44 28 C-44.75 25.1875 -44.75 25.1875 -45 23 C-43.97916667 23.875 -42.95833333 24.75 -41.9375 25.625 C-40.9784375 26.44097656 -40.9784375 26.44097656 -40 27.2734375 C-38.71264327 28.38478843 -37.44028275 29.51387834 -36.1875 30.6640625 C-31.26988908 35.20781241 -31.26988908 35.20781241 -25 37 C-19.54132963 34.39186087 -15.03138035 30.46720526 -11 26 C-10.50757813 25.48824219 -10.01515625 24.97648437 -9.5078125 24.44921875 C-2.80087639 17.19171326 -0.40856831 9.78521098 0 0 Z " fill="#CDBCAF" transform="translate(1509,30)"/>
<path d="M0 0 C2.97 0.495 2.97 0.495 6 1 C6.33 0.67 6.66 0.34 7 0 C9.59913271 0.18049533 12.16499541 0.52062443 14.75 0.84375 C15.4925 0.8953125 16.235 0.946875 17 1 C17.33 0.67 17.66 0.34 18 0 C23.37977893 -0.46780686 23.37977893 -0.46780686 25.67700195 1.26489258 C27.28536554 3.37425593 27.35215621 4.38774128 27.29296875 7.01171875 C27.28330078 7.76904297 27.27363281 8.52636719 27.26367188 9.30664062 C27.23853516 10.09232422 27.21339844 10.87800781 27.1875 11.6875 C27.16719727 12.88342773 27.16719727 12.88342773 27.14648438 14.10351562 C27.11117089 16.06929967 27.05736447 18.03473582 27 20 C25.68 20 24.36 20 23 20 C22.67 15.05 22.34 10.1 22 5 C20.68 4.67 19.36 4.34 18 4 C16.00383446 5.99616554 16.59016573 9.81701963 16.4375 12.5625 C16.39431641 13.27341797 16.35113281 13.98433594 16.30664062 14.71679688 C16.20028223 16.47761912 16.09961154 18.2387832 16 20 C14.68 20 13.36 20 12 20 C11.67 15.05 11.34 10.1 11 5 C9.68 4.67 8.36 4.34 7 4 C4.14206684 6.85793316 4.59200059 9.14665584 4.375 13.125 C4.26285156 15.04699219 4.26285156 15.04699219 4.1484375 17.0078125 C4.09945312 17.99523437 4.05046875 18.98265625 4 20 C2.68 20 1.36 20 0 20 C0 13.4 0 6.8 0 0 Z " fill="#BE624A" transform="translate(832,526)"/>
<path d="M0 0 C3.44347346 0.92335075 4.94574523 2.65638377 6.9375 5.51953125 C6.9375 7.49953125 6.9375 9.47953125 6.9375 11.51953125 C2.3175 11.51953125 -2.3025 11.51953125 -7.0625 11.51953125 C-6.7325 13.16953125 -6.4025 14.81953125 -6.0625 16.51953125 C-3.0925 16.51953125 -0.1225 16.51953125 2.9375 16.51953125 C2.9375 15.52953125 2.9375 14.53953125 2.9375 13.51953125 C4.2575 13.51953125 5.5775 13.51953125 6.9375 13.51953125 C6.37103627 16.80502089 5.54680515 18.42738568 2.9375 20.51953125 C-0.10830823 21.14215503 -3.0018391 21.03425361 -6.0625 20.51953125 C-8.56410818 18.64332512 -9.68195652 17.28061822 -11.0625 14.51953125 C-11.51519417 9.9925895 -11.75511379 6.81449029 -9.0625 3.01953125 C-5.72305318 0.2366589 -4.22250982 -0.34387864 0 0 Z " fill="#BE6149" transform="translate(581.0625,525.48046875)"/>
<path d="M0 0 C3.44347346 0.92335075 4.94574523 2.65638377 6.9375 5.51953125 C6.9375 7.49953125 6.9375 9.47953125 6.9375 11.51953125 C2.3175 11.51953125 -2.3025 11.51953125 -7.0625 11.51953125 C-6.4025 13.16953125 -5.7425 14.81953125 -5.0625 16.51953125 C-2.14615871 16.76974695 -2.14615871 16.76974695 0.9375 16.51953125 C1.5975 15.52953125 2.2575 14.53953125 2.9375 13.51953125 C4.2575 13.51953125 5.5775 13.51953125 6.9375 13.51953125 C6.37129452 16.80352306 5.54926481 18.43129587 2.9375 20.51953125 C-1.12265076 21.2822115 -4.89711185 21.13136003 -8.5625 19.20703125 C-11.31000599 16.11608701 -11.47286504 12.62028009 -11.3984375 8.59375 C-10.40156202 2.43862347 -6.04406435 -0.49222494 0 0 Z " fill="#BE6149" transform="translate(483.0625,525.48046875)"/>
<path d="M0 0 C1.65 0.33 3.3 0.66 5 1 C5.66 4.96 6.32 8.92 7 13 C7.66 13 8.32 13 9 13 C9.12375 11.7625 9.2475 10.525 9.375 9.25 C9.75746305 6.1237803 10.30549523 3.71120763 12 1 C12.99 1 13.98 1 15 1 C13.9559635 7.68183363 12.5957524 13.7465965 10 20 C8.35 20 6.7 20 5 20 C4.01 16.04 3.02 12.08 2 8 C1.01 11.96 0.02 15.92 -1 20 C-2.65 20 -4.3 20 -6 20 C-6.83661862 17.2092793 -7.66942737 14.41751988 -8.5 11.625 C-8.73847656 10.8309375 -8.97695313 10.036875 -9.22265625 9.21875 C-9.44824219 8.45820312 -9.67382812 7.69765625 -9.90625 6.9140625 C-10.11572266 6.2123291 -10.32519531 5.5105957 -10.54101562 4.78759766 C-11 3 -11 3 -11 1 C-9.68 1 -8.36 1 -7 1 C-6.79503906 1.71027344 -6.59007812 2.42054688 -6.37890625 3.15234375 C-6.10949219 4.07144531 -5.84007812 4.99054687 -5.5625 5.9375 C-5.16224609 7.31228516 -5.16224609 7.31228516 -4.75390625 8.71484375 C-4.20973949 10.9402493 -4.20973949 10.9402493 -3 12 C-2.01 8.04 -1.02 4.08 0 0 Z " fill="#BE6249" transform="translate(553,526)"/>
<path d="M0 0 C2.20703125 1.0703125 2.20703125 1.0703125 4 3 C4.390625 6.35546875 4.390625 6.35546875 4.25 10.1875 C4.21390625 11.45980469 4.1778125 12.73210938 4.140625 14.04296875 C4.07101562 15.50669922 4.07101562 15.50669922 4 17 C4.99 17 5.98 17 7 17 C7 17.99 7 18.98 7 20 C2.25 20.125 2.25 20.125 0 19 C-0.66 19.33 -1.32 19.66 -2 20 C-3.875 20.16796875 -3.875 20.16796875 -6 20.1875 C-7.051875 20.20876953 -7.051875 20.20876953 -8.125 20.23046875 C-10 20 -10 20 -12 18 C-12.55845388 12.75053355 -12.55845388 12.75053355 -10.7734375 10.3515625 C-8.55754545 8.66279895 -7.07107468 8.51239672 -4.3125 8.3125 C-3.10013672 8.21388672 -3.10013672 8.21388672 -1.86328125 8.11328125 C-1.24839844 8.07589844 -0.63351562 8.03851562 0 8 C-0.33 6.68 -0.66 5.36 -1 4 C-3.41645782 3.83312552 -3.41645782 3.83312552 -6 4 C-6.66 4.66 -7.32 5.32 -8 6 C-8.99 6 -9.98 6 -11 6 C-10.6875 4.125 -10.6875 4.125 -10 2 C-6.28986601 -0.47342266 -4.38939738 -0.38503486 0 0 Z " fill="#BD5E46" transform="translate(603,526)"/>
<path d="M0 0 C2.4375 1.5625 2.4375 1.5625 4 4 C4.75 7.75 4.75 7.75 5 11 C0.38 11 -4.24 11 -9 11 C-8.34 12.65 -7.68 14.3 -7 16 C-4.08365871 16.2502157 -4.08365871 16.2502157 -1 16 C-0.34 15.01 0.32 14.02 1 13 C1.99 13 2.98 13 4 13 C3.25 17.75 3.25 17.75 1 20 C-3.08248976 20.60685659 -6.82243483 20.61822172 -10.5 18.6875 C-13.45859692 15.35907846 -13.40518653 11.47543405 -13.3359375 7.23046875 C-13 5 -13 5 -11 1.9375 C-6.83994881 -0.74919973 -4.89701312 -0.6995733 0 0 Z " fill="#BE6048" transform="translate(525,526)"/>
<path d="M0 0 C2.4375 1.0625 2.4375 1.0625 4 3 C5.0625 6.3125 5.0625 6.3125 5 10 C3.15396038 13.27523158 1.81838767 15.48777812 -1.94140625 16.546875 C-5.9301218 16.81934893 -7.67862707 16.22763916 -11 13.875 C-13 11 -13 11 -13.625 8 C-12.00740298 0.23553432 -6.92486075 -0.8793474 0 0 Z " fill="#302A2B" transform="translate(505,404)"/>
<path d="M0 0 C1.32 0 2.64 0 4 0 C4.33 2.97 4.66 5.94 5 9 C5.66 8.34 6.32 7.68 7 7 C10.44999744 6.55000033 12.28213355 6.50341138 15.1796875 8.5078125 C17.7187945 11.98410063 17.43940605 15.126776 17.25 19.25 C17.23195313 19.99507812 17.21390625 20.74015625 17.1953125 21.5078125 C17.14835649 23.33909701 17.07661652 25.16971649 17 27 C15.68 27 14.36 27 13 27 C12.67 22.05 12.34 17.1 12 12 C10.35 11.67 8.7 11.34 7 11 C4.14206684 13.85793316 4.59200059 16.14665584 4.375 20.125 C4.26285156 22.04699219 4.26285156 22.04699219 4.1484375 24.0078125 C4.09945312 24.99523437 4.05046875 25.98265625 4 27 C2.68 27 1.36 27 0 27 C0 18.09 0 9.18 0 0 Z " fill="#BF644B" transform="translate(632,519)"/>
<path d="M0 0 C1.32 0 2.64 0 4 0 C4.33 2.64 4.66 5.28 5 8 C5.66 7.67 6.32 7.34 7 7 C12.3929108 6.54102887 12.3929108 6.54102887 14.6730957 8.26489258 C16.28627211 10.37433963 16.35221638 11.38507388 16.29296875 14.01171875 C16.28330078 14.76904297 16.27363281 15.52636719 16.26367188 16.30664062 C16.23853516 17.09232422 16.21339844 17.87800781 16.1875 18.6875 C16.16719727 19.88342773 16.16719727 19.88342773 16.14648438 21.10351562 C16.11117089 23.06929967 16.05736447 25.03473582 16 27 C14.68 27 13.36 27 12 27 C11.67 22.05 11.34 17.1 11 12 C7.25308553 10.60229416 7.25308553 10.60229416 5 12 C4.68758629 14.54941373 4.48696579 17.00361513 4.375 19.5625 C4.33632813 20.27341797 4.29765625 20.98433594 4.2578125 21.71679688 C4.16328217 23.47742425 4.08054183 25.23867728 4 27 C2.68 27 1.36 27 0 27 C0 18.09 0 9.18 0 0 Z " fill="#BF634A" transform="translate(773,519)"/>
<path d="M0 0 C1.32 0 2.64 0 4 0 C4 2.97 4 5.94 4 9 C4.99 8.34 5.98 7.68 7 7 C12.27686759 6.45032629 12.27686759 6.45032629 14.66918945 8.26879883 C16.288758 10.37563438 16.35225062 11.38355577 16.29296875 14.01171875 C16.28330078 14.76904297 16.27363281 15.52636719 16.26367188 16.30664062 C16.23853516 17.09232422 16.21339844 17.87800781 16.1875 18.6875 C16.16719727 19.88342773 16.16719727 19.88342773 16.14648438 21.10351562 C16.11117089 23.06929967 16.05736447 25.03473582 16 27 C14.68 27 13.36 27 12 27 C11.67 22.05 11.34 17.1 11 12 C7.25308553 10.60229416 7.25308553 10.60229416 5 12 C4.68758629 14.54941373 4.48696579 17.00361513 4.375 19.5625 C4.33632813 20.27341797 4.29765625 20.98433594 4.2578125 21.71679688 C4.16328217 23.47742425 4.08054183 25.23867728 4 27 C2.68 27 1.36 27 0 27 C0 18.09 0 9.18 0 0 Z " fill="#BE6249" transform="translate(675,519)"/>
<path d="M0 0 C1.32 0 2.64 0 4 0 C4.33 2.97 4.66 5.94 5 9 C5.66 8.34 6.32 7.68 7 7 C12.26185894 6.44022777 12.26185894 6.44022777 14.6730957 8.26879883 C16.28785245 10.37555874 16.35219043 11.38622442 16.29296875 14.01171875 C16.28330078 14.76904297 16.27363281 15.52636719 16.26367188 16.30664062 C16.23853516 17.09232422 16.21339844 17.87800781 16.1875 18.6875 C16.16719727 19.88342773 16.16719727 19.88342773 16.14648438 21.10351562 C16.11117089 23.06929967 16.05736447 25.03473582 16 27 C15.01 27 14.02 27 13 27 C12.67 22.05 12.34 17.1 12 12 C10.35 11.67 8.7 11.34 7 11 C4.14206684 13.85793316 4.59200059 16.14665584 4.375 20.125 C4.26285156 22.04699219 4.26285156 22.04699219 4.1484375 24.0078125 C4.09945313 24.99523437 4.05046875 25.98265625 4 27 C2.68 27 1.36 27 0 27 C0 18.09 0 9.18 0 0 Z " fill="#BC5C44" transform="translate(443,519)"/>
<path d="M0 0 C1.32 0 2.64 0 4 0 C4.33 5.61 4.66 11.22 5 17 C10.47825081 15.67082039 10.47825081 15.67082039 12 14 C12.23527773 11.65012738 12.41386417 9.29443961 12.5625 6.9375 C12.64628906 5.64714844 12.73007812 4.35679687 12.81640625 3.02734375 C12.87699219 2.02832031 12.93757812 1.02929688 13 0 C14.32 0.33 15.64 0.66 17 1 C17 7.27 17 13.54 17 20 C15.35 19.67 13.7 19.34 12 19 C11.34 19.33 10.68 19.66 10 20 C3.62473992 20.46365528 3.62473992 20.46365528 1.2956543 18.73510742 C-0.27897482 16.62640399 -0.35173552 15.59360786 -0.29296875 12.98828125 C-0.28330078 12.23095703 -0.27363281 11.47363281 -0.26367188 10.69335938 C-0.23853516 9.90767578 -0.21339844 9.12199219 -0.1875 8.3125 C-0.17396484 7.51521484 -0.16042969 6.71792969 -0.14648438 5.89648438 C-0.11117089 3.93070033 -0.05736447 1.96526418 0 0 Z " fill="#C26B54" transform="translate(730,526)"/>
<path d="M0 0 C2.4375 1.3125 2.4375 1.3125 4 3 C4 3.99 4 4.98 4 6 C2.68 6 1.36 6 0 6 C-0.33 5.34 -0.66 4.68 -1 4 C-2.65 4 -4.3 4 -6 4 C-6 4.99 -6 5.98 -6 7 C-5.36191406 7.20496094 -4.72382812 7.40992188 -4.06640625 7.62109375 C-3.24011719 7.89050781 -2.41382813 8.15992188 -1.5625 8.4375 C-0.73878906 8.70433594 0.08492187 8.97117187 0.93359375 9.24609375 C3 10 3 10 4 11 C4.25 14.4375 4.25 14.4375 4 18 C-0.02760008 20.68506672 -3.27109293 20.5633716 -8 20 C-10.5625 18.6875 -10.5625 18.6875 -12 17 C-12 16.01 -12 15.02 -12 14 C-10.68 14 -9.36 14 -8 14 C-7.67 14.66 -7.34 15.32 -7 16 C-4.67843403 16.40729228 -2.3431213 16.74438677 0 17 C-0.15110679 15.03164856 -0.15110679 15.03164856 -1 13 C-3.04831139 11.89794531 -3.04831139 11.89794531 -5.5 11.3125 C-9.94701987 10.05298013 -9.94701987 10.05298013 -11 9 C-11.3125 6.125 -11.3125 6.125 -11 3 C-7.93204001 -0.68155198 -4.54559187 -0.4870277 0 0 Z " fill="#BE6149" transform="translate(815,526)"/>
<path d="M0 0 C1.32 0 2.64 0 4 0 C2.41533371 5.70737532 0.59899591 11.31234913 -1.4375 16.875 C-1.82808594 17.94492187 -2.21867188 19.01484375 -2.62109375 20.1171875 C-4.06161891 23.12882367 -5.41677171 24.9033215 -8 27 C-10.75 27.25 -10.75 27.25 -13 27 C-13 26.01 -13 25.02 -13 24 C-11.35 23.34 -9.7 22.68 -8 22 C-8.57618751 16.85404946 -9.74743278 12.44921945 -11.5625 7.5625 C-12.01753906 6.32628906 -12.47257813 5.09007812 -12.94140625 3.81640625 C-13.29074219 2.88699219 -13.64007812 1.95757813 -14 1 C-11.64453125 1.15234375 -11.64453125 1.15234375 -9 2 C-7.08334899 5.52026733 -6.19503169 9.14934233 -5 13 C-3.35 8.71 -1.7 4.42 0 0 Z " fill="#BF634B" transform="translate(954,526)"/>
<path d="M0 0 C2.96979526 0.66333542 4.24411495 1.93257868 5.90625 4.42578125 C5.90625 5.74578125 5.90625 7.06578125 5.90625 8.42578125 C4.58625 8.42578125 3.26625 8.42578125 1.90625 8.42578125 C1.57625 7.10578125 1.24625 5.78578125 0.90625 4.42578125 C-0.75986905 4.38306025 -2.42757885 4.38514293 -4.09375 4.42578125 C-5.34548779 5.45611514 -5.34548779 5.45611514 -5.2265625 7.67578125 C-5.22398437 8.58328125 -5.22140625 9.49078125 -5.21875 10.42578125 C-5.22132813 11.33328125 -5.22390625 12.24078125 -5.2265625 13.17578125 C-5.34548779 15.39544736 -5.34548779 15.39544736 -4.09375 16.42578125 C-1.63582971 16.75921676 -1.63582971 16.75921676 0.90625 16.42578125 C1.56625 15.43578125 2.22625 14.44578125 2.90625 13.42578125 C3.89625 13.42578125 4.88625 13.42578125 5.90625 13.42578125 C5.59375 15.80078125 5.59375 15.80078125 4.90625 18.42578125 C1.20052347 20.8962656 -1.79749814 21.074109 -6.09375 20.42578125 C-8.59375 19.11328125 -8.59375 19.11328125 -10.09375 16.42578125 C-10.85136771 11.29607797 -10.81717131 6.96305152 -8.59375 2.23828125 C-5.55296766 0.03371405 -3.69159608 -0.24105571 0 0 Z " fill="#BE6149" transform="translate(912.09375,525.57421875)"/>
<path d="M0 0 C2.72052287 0.50731062 4.13532777 1.21560439 5.90625 3.35546875 C6.15625 6.04296875 6.15625 6.04296875 5.90625 8.35546875 C3.96875 8.04296875 3.96875 8.04296875 1.90625 7.35546875 C1.57625 6.36546875 1.24625 5.37546875 0.90625 4.35546875 C-1.07375 4.35546875 -3.05375 4.35546875 -5.09375 4.35546875 C-5.09375 7.98546875 -5.09375 11.61546875 -5.09375 15.35546875 C-2.78375 16.01546875 -0.47375 16.67546875 1.90625 17.35546875 C2.23625 16.03546875 2.56625 14.71546875 2.90625 13.35546875 C3.89625 13.35546875 4.88625 13.35546875 5.90625 13.35546875 C5.15625 18.10546875 5.15625 18.10546875 2.90625 20.35546875 C-0.1538073 20.91667617 -3.02785233 20.86191366 -6.09375 20.35546875 C-9.07591673 18.17339554 -9.89898048 16.60609408 -10.46484375 12.97265625 C-10.66926529 8.82227949 -10.4057581 6.00548563 -8.59375 2.23046875 C-5.54021481 -0.05968265 -3.73752776 -0.25800098 0 0 Z " fill="#BE6048" transform="translate(433.09375,525.64453125)"/>
<path d="M0 0 C1.32 0 2.64 0 4 0 C4.67528223 1.57967807 5.33989694 3.16391903 6 4.75 C6.37125 5.63171875 6.7425 6.5134375 7.125 7.421875 C8 10 8 10 8 14 C8.66 14 9.32 14 10 14 C10.18175781 13.11248047 10.18175781 13.11248047 10.3671875 12.20703125 C11.26744643 7.96196415 12.20456621 3.97560339 14 0 C15.32 0 16.64 0 18 0 C17.36378211 2.71382568 16.57750555 5.28487899 15.58984375 7.890625 C15.32236328 8.59960938 15.05488281 9.30859375 14.77929688 10.0390625 C14.50150391 10.76867187 14.22371094 11.49828125 13.9375 12.25 C13.65583984 12.99507812 13.37417969 13.74015625 13.08398438 14.5078125 C12.3913087 16.33929393 11.69592093 18.16974923 11 20 C9.68 20 8.36 20 7 20 C5.8278551 17.04380781 4.66322524 14.08471211 3.5 11.125 C3.16613281 10.28324219 2.83226562 9.44148437 2.48828125 8.57421875 C2.01455078 7.36572266 2.01455078 7.36572266 1.53125 6.1328125 C1.23798828 5.38918457 0.94472656 4.64555664 0.64257812 3.87939453 C0 2 0 2 0 0 Z " fill="#BF634B" transform="translate(492,526)"/>
<path d="M0 0 C0.33 0 0.66 0 1 0 C1.12375 0.78375 1.2475 1.5675 1.375 2.375 C1.79117993 5.14057822 1.79117993 5.14057822 4 7 C4.48043027 16.60860531 -1.19298262 24.61154311 -7.38867188 31.55664062 C-12.20867823 36.55046136 -17.19533899 41.19468177 -24 43 C-26.375 42.875 -26.375 42.875 -28 42 C-28.495 40.515 -28.495 40.515 -29 39 C-28.41992188 38.89042969 -27.83984375 38.78085938 -27.2421875 38.66796875 C-17.56429606 36.70364425 -11.36721403 32.91650846 -5.48046875 24.94140625 C-1.53550653 18.9273284 -0.90655642 13.85736243 -0.4375 6.6875 C-0.35371094 5.43324219 -0.26992187 4.17898437 -0.18359375 2.88671875 C-0.09271484 1.45779297 -0.09271484 1.45779297 0 0 Z " fill="#E0D7C8" transform="translate(1509,30)"/>
<path d="M0 0 C1.32 0 2.64 0 4 0 C4 1.65 4 3.3 4 5 C4.99 5 5.98 5 7 5 C7 6.32 7 7.64 7 9 C6.01 9 5.02 9 4 9 C4 13.29 4 17.58 4 22 C4.99 22 5.98 22 7 22 C7 22.99 7 23.98 7 25 C5.02 25 3.04 25 1 25 C-0.50156874 21.99686252 -0.09281204 19.20932478 -0.0625 15.875 C-0.05347656 14.59367188 -0.04445313 13.31234375 -0.03515625 11.9921875 C-0.02355469 11.00476563 -0.01195312 10.01734375 0 9 C-0.66 9 -1.32 9 -2 9 C-2 7.68 -2 6.36 -2 5 C-1.34 5 -0.68 5 0 5 C0 3.35 0 1.7 0 0 Z " fill="#BF634B" transform="translate(622,521)"/>
<path d="M0 0 C2.875 0.75 2.875 0.75 3.875 1.75 C3.9995486 3.39230364 4.05068524 5.04052276 4.0625 6.6875 C4.07667969 7.58339844 4.09085938 8.47929688 4.10546875 9.40234375 C3.875 11.75 3.875 11.75 1.875 13.75 C-1.125 14 -1.125 14 -4.125 13.75 C-6.53986943 11.33513057 -6.4211925 10.62292211 -6.4375 7.3125 C-6.45425781 6.53003906 -6.47101562 5.74757813 -6.48828125 4.94140625 C-5.79988963 0.78885034 -4.08994193 -0.32719535 0 0 Z " fill="#FBEEDD" transform="translate(718.125,529.25)"/>
<path d="M0 0 C0.99 0 1.98 0 3 0 C3 1.98 3 3.96 3 6 C4.32 6 5.64 6 7 6 C7 6.99 7 7.98 7 9 C5.68 9 4.36 9 3 9 C3 13.29 3 17.58 3 22 C3.99 22 4.98 22 6 22 C6 22.99 6 23.98 6 25 C3.625 25.125 3.625 25.125 1 25 C-1 23 -1 23 -1.1953125 19.7421875 C-1.17210937 18.46601562 -1.14890625 17.18984375 -1.125 15.875 C-1.10695313 14.59367188 -1.08890625 13.31234375 -1.0703125 11.9921875 C-1.04710937 11.00476563 -1.02390625 10.01734375 -1 9 C-1.66 9 -2.32 9 -3 9 C-3 8.01 -3 7.02 -3 6 C-2.34 5.67 -1.68 5.34 -1 5 C-0.34444881 2.47266765 -0.34444881 2.47266765 0 0 Z " fill="#BE6048" transform="translate(665,521)"/>
<path d="M0 0 C0.99 0 1.98 0 3 0 C3 1.98 3 3.96 3 6 C3.99 6 4.98 6 6 6 C6 6.99 6 7.98 6 9 C5.01 9 4.02 9 3 9 C3 13.29 3 17.58 3 22 C3.99 22 4.98 22 6 22 C6 22.99 6 23.98 6 25 C3.625 25.125 3.625 25.125 1 25 C-1 23 -1 23 -1.1953125 19.7421875 C-1.17210937 18.46601562 -1.14890625 17.18984375 -1.125 15.875 C-1.10695313 14.59367188 -1.08890625 13.31234375 -1.0703125 11.9921875 C-1.04710937 11.00476563 -1.02390625 10.01734375 -1 9 C-1.66 9 -2.32 9 -3 9 C-3 8.01 -3 7.02 -3 6 C-2.34 6 -1.68 6 -1 6 C-0.67 4.02 -0.34 2.04 0 0 Z " fill="#BC5E45" transform="translate(932,521)"/>
<path d="M0 0 C1.32 0 2.64 0 4 0 C4 8.91 4 17.82 4 27 C2.68 27 1.36 27 0 27 C0 18.09 0 9.18 0 0 Z " fill="#BD5E45" transform="translate(885,519)"/>
<path d="M0 0 C2.33294775 -0.04241723 4.66702567 -0.04092937 7 0 C8.66561399 1.66561399 8.17115945 3.65962705 8.1875 5.9375 C8.20167969 6.83339844 8.21585938 7.72929688 8.23046875 8.65234375 C8 11 8 11 6 13 C3.5 13.3125 3.5 13.3125 1 13 C-1.70238949 8.94641576 -1.22937614 6.81689896 -1 2 C-0.67 1.34 -0.34 0.68 0 0 Z " fill="#FCEFDF" transform="translate(869,530)"/>
<path d="M0 0 C0.99 0 1.98 0 3 0 C3.33 0.66 3.66 1.32 4 2 C4.66 1.34 5.32 0.68 6 0 C7.32 0 8.64 0 10 0 C10 1.32 10 2.64 10 4 C8.35 4.66 6.7 5.32 5 6 C4.67 10.62 4.34 15.24 4 20 C2.68 20 1.36 20 0 20 C0 13.4 0 6.8 0 0 Z " fill="#BC5D44" transform="translate(696,526)"/>
<path d="M0 0 C1.32 0 2.64 0 4 0 C4.33 5.61 4.66 11.22 5 17 C6.65 17 8.3 17 10 17 C9.67 17.99 9.34 18.98 9 20 C3.48968706 20.3673542 3.48968706 20.3673542 1.3190918 18.73901367 C-0.28288089 16.62706633 -0.35212199 15.6107416 -0.29296875 12.98828125 C-0.28330078 12.23095703 -0.27363281 11.47363281 -0.26367188 10.69335938 C-0.23853516 9.90767578 -0.21339844 9.12199219 -0.1875 8.3125 C-0.17396484 7.51521484 -0.16042969 6.71792969 -0.14648438 5.89648438 C-0.11117089 3.93070033 -0.05736447 1.96526418 0 0 Z " fill="#BD6048" transform="translate(730,526)"/>
<path d="M0 0 C1.32 0 2.64 0 4 0 C4 6.6 4 13.2 4 20 C2.68 20 1.36 20 0 20 C0 13.4 0 6.8 0 0 Z " fill="#BE6149" transform="translate(922,526)"/>
<path d="M0 0 C1.32 0 2.64 0 4 0 C4 6.6 4 13.2 4 20 C2.68 20 1.36 20 0 20 C0 13.4 0 6.8 0 0 Z " fill="#BE624A" transform="translate(894,526)"/>
<path d="M0 0 C1.32 0 2.64 0 4 0 C4 6.6 4 13.2 4 20 C2.68 20 1.36 20 0 20 C0 13.4 0 6.8 0 0 Z " fill="#C26B53" transform="translate(823,526)"/>
<path d="M0 0 C1.32 0 2.64 0 4 0 C4 6.6 4 13.2 4 20 C2.68 20 1.36 20 0 20 C0 13.4 0 6.8 0 0 Z " fill="#C16850" transform="translate(464,526)"/>
<path d="M0 0 C0.99 0 1.98 0 3 0 C3 8.58 3 17.16 3 26 C2.01 26 1.02 26 0 26 C0 17.42 0 8.84 0 0 Z " fill="#B9553C" transform="translate(613,520)"/>
<path d="M0 0 C4.62 0 9.24 0 14 0 C12.68 0.33 11.36 0.66 10 1 C10 2.32 10 3.64 10 5 C3.53104925 6.34261242 3.53104925 6.34261242 1.0625 4.75 C0 3 0 3 0 0 Z " fill="#F7E3D2" transform="translate(574,537)"/>
<path d="M0 0 C4.62 0 9.24 0 14 0 C12.68 0.33 11.36 0.66 10 1 C9.7834375 1.9590625 9.7834375 1.9590625 9.5625 2.9375 C9 5 9 5 8 6 C5.0625 6.25 5.0625 6.25 2 6 C0 3 0 3 0 0 Z " fill="#F7E4D3" transform="translate(476,537)"/>
<path d="M0 0 C4.62 0 9.24 0 14 0 C12.02 0.99 12.02 0.99 10 2 C8.73195434 4.0335948 8.73195434 4.0335948 8 6 C5.125 6.1875 5.125 6.1875 2 6 C0 3 0 3 0 0 Z " fill="#F8E5D5" transform="translate(516,537)"/>
<path d="M0 0 C3.33773709 3.64116773 3.97864902 7.28607242 5 12 C2.36 12 -0.28 12 -3 12 C-2.40075776 7.80530429 -1.42500059 3.99000166 0 0 Z " fill="#F8E6D5" transform="translate(408,524)"/>
<path d="M0 0 C0.66 0.33 1.32 0.66 2 1 C1.505 1.495 1.01 1.99 0.5 2.5 C-2.78040074 7.96733457 -0.86223757 14.45524554 0.5625 20.3125 C0.706875 20.869375 0.85125 21.42625 1 22 C0.34 22 -0.32 22 -1 22 C-1 21.01 -1 20.02 -1 19 C-1.99 19 -2.98 19 -4 19 C-5.61307388 15.77385223 -5.46394748 12.49791979 -5 9 C-3.80289178 5.83854602 -2.42320192 2.42320192 0 0 Z " fill="#E0D1C3" transform="translate(1459,24)"/>
<path d="M0 0 C2.5 0.25 2.5 0.25 4.5 2.25 C4.125 4.875 4.125 4.875 3.5 7.25 C1.19 7.25 -1.12 7.25 -3.5 7.25 C-4.125 4.875 -4.125 4.875 -4.5 2.25 C-2.5 0.25 -2.5 0.25 0 0 Z " fill="#F9E7D7" transform="translate(759.5,528.75)"/>
<path d="M0 0 C3.96 0 7.92 0 12 0 C11.67 1.32 11.34 2.64 11 4 C7.37 4 3.74 4 0 4 C0 2.68 0 1.36 0 0 Z " fill="#F7E4D4" transform="translate(754,546)"/>
<path d="M0 0 C-0.875 4.875 -0.875 4.875 -2 6 C-3.99958364 6.04080783 -6.00045254 6.04254356 -8 6 C-7.625 3.5625 -7.625 3.5625 -7 1 C-4.53721199 -0.231394 -2.7204945 -0.07159196 0 0 Z " fill="#F8E6D5" transform="translate(603,537)"/>
<path d="M0 0 C2.5625 0.1875 2.5625 0.1875 4.5625 2.1875 C4.5625 3.1775 4.5625 4.1675 4.5625 5.1875 C1.5925 5.1875 -1.3775 5.1875 -4.4375 5.1875 C-3.20220588 0.24632353 -3.20220588 0.24632353 0 0 Z " fill="#F8E5D4" transform="translate(579.4375,528.8125)"/>
<path d="M0 0 C1.2065625 0.0309375 1.2065625 0.0309375 2.4375 0.0625 C3.0975 1.7125 3.7575 3.3625 4.4375 5.0625 C1.4675 5.0625 -1.5025 5.0625 -4.5625 5.0625 C-3.31710123 0.08090491 -3.31710123 0.08090491 0 0 Z " fill="#F8E7D6" transform="translate(481.5625,528.9375)"/>
<path d="M0 0 C2.00720923 0.28674418 4.0085944 0.61866701 6 1 C6 2.32 6 3.64 6 5 C3.03 5 0.06 5 -3 5 C-1 1 -1 1 0 0 Z " fill="#F9E8D8" transform="translate(519,529)"/>
<path d="M0 0 C0.33 0.99 0.66 1.98 1 3 C-0.40893147 4.63171123 -1.82745958 6.25513945 -3.25 7.875 C-4.03890625 8.77992187 -4.8278125 9.68484375 -5.640625 10.6171875 C-7.74691403 12.74439993 -9.25651526 13.90512306 -12 15 C-10.4744094 11.34858644 -8.27519091 9.09881888 -5.4375 6.375 C-2.30957946 3.48929319 -2.30957946 3.48929319 0 0 Z " fill="#D4CBBD" transform="translate(1504,51)"/>
<path d="M0 0 C3.4375 1.3125 3.4375 1.3125 7 3 C7.33 3.99 7.66 4.98 8 6 C5.36 6 2.72 6 0 6 C0 4.02 0 2.04 0 0 Z " fill="#ECEDF0" transform="translate(0,950)"/>
<path d="M0 0 C-3.6678852 1.96189209 -6.87248551 3.39301257 -11 4 C-11.33 3.01 -11.66 2.02 -12 1 C-10.37681021 0.63762737 -8.7513642 0.28534843 -7.125 -0.0625 C-6.22007813 -0.25972656 -5.31515625 -0.45695312 -4.3828125 -0.66015625 C-2 -1 -2 -1 0 0 Z " fill="#E2D9CA" transform="translate(1493,69)"/>
<path d="M0 0 C1.46534385 3.80989402 0.55203911 6.3241179 -1 10 C-1.99 10.495 -1.99 10.495 -3 11 C-2.44894091 7.0507432 -1.61064629 3.65079826 0 0 Z " fill="#D4C5B8" transform="translate(1508,40)"/>
</svg>
